<?xml version="1.0" encoding="utf-8" ?>
<svg xmlns="http://www.w3.org/2000/svg" xmlns:xlink="http://www.w3.org/1999/xlink" width="4096" height="4096">
	<path transform="scale(4 4)" d="M961.395 674.815C962.313 702.257 958.218 727.747 945.489 752.413Q943.695 755.903 941.713 759.29Q939.731 762.677 937.566 765.95Q935.401 769.223 933.059 772.373Q930.718 775.522 928.208 778.538Q925.697 781.555 923.025 784.429Q920.354 787.303 917.528 790.027Q914.703 792.75 911.732 795.315Q908.762 797.879 905.655 800.277C892.4 810.327 877.069 818.104 862.689 826.446L777.571 875.231Q706.11 917.372 634.115 958.594L602.214 977.067C589.24 984.582 575.978 992.492 561.587 997.008C534.131 1005.62 499.595 1006.04 471.57 999.36Q466.994 998.269 462.496 996.888Q457.999 995.507 453.599 993.842Q449.199 992.177 444.914 990.234Q440.629 988.292 436.477 986.08C417.555 976.2 399.269 964.828 380.768 954.171L248.666 877.277L161.721 827.34C144.854 817.488 126.709 808.386 111.849 795.56Q109.992 793.953 108.192 792.284Q106.391 790.614 104.649 788.884Q102.906 787.153 101.224 785.364Q99.5424 783.575 97.9228 781.729Q96.3032 779.884 94.7479 777.984Q93.1926 776.083 91.7033 774.131Q90.2141 772.179 88.7927 770.176Q87.3714 768.174 86.0195 766.124Q84.6676 764.074 83.3869 761.979Q82.1061 759.884 80.898 757.746Q79.6899 755.608 78.5558 753.43Q77.4217 751.252 76.363 749.037Q75.3043 746.821 74.3222 744.57Q73.3401 742.32 72.4358 740.037Q71.5314 737.754 70.706 735.441Q69.8805 733.129 69.1348 730.789C65.7409 719.863 63.9421 708.788 63.2847 697.387C62.7529 688.162 62.9731 678.878 62.9741 669.639L62.9846 626.349L63.0133 491.302L62.8996 390.173C62.8071 367.642 61.6754 344.862 63.9333 322.412C65.8445 303.41 70.9299 284.906 79.8859 267.983C88.6116 251.496 100.49 236.362 115.443 225.109C128.935 214.956 144.291 207.613 158.926 199.306L225.523 160.902L353.525 86.9721Q379.737 71.6875 406.164 56.777C425.722 45.645 445.097 33.4616 466.783 26.8992C496.424 17.9297 529.529 18.4645 559.158 27.2804C586.312 35.3597 614.033 54.155 638.691 68.4632L744.17 129.656C755.7 136.248 766.959 143.394 778.667 149.657C789.099 156.227 799.991 162.193 810.664 168.368L857.057 195.223C872.439 203.976 888.926 212.083 903.261 222.465C931.009 242.56 950.806 275.062 958.221 308.326C959.059 312.083 960.109 316.442 960.037 320.297C962.205 333.043 961.425 346.955 961.476 359.903L961.519 424.874L961.131 592.644Q960.906 633.732 961.395 674.815ZM620.27 247.686C618.9 251.443 618.82 254.305 619.486 258.243C621.063 267.567 625.43 276.609 628.395 285.584C632.049 296.642 634.69 308.234 639.638 318.812Q640.331 320.313 641.146 321.75C643.356 322.843 645.434 323.897 647.421 325.38C644.091 326.471 641.055 327.494 638.058 329.353C634.667 335.52 633.105 342.924 631.032 349.623C627.014 362.606 621.897 380.393 616.395 392.418C613.412 393.579 610.727 394.756 608.569 397.242C599.006 408.258 591.796 422.584 582.967 434.504C572.527 448.6 559.744 461.383 550.279 476.102C548.538 474.09 546.827 472.059 544.937 470.184L545.283 470.887C547.497 475.337 550.729 479.172 552.92 483.582C558.973 495.765 559.449 513.645 555.237 526.442C551.955 536.409 544.555 544.06 536.166 550.083C517.979 544.85 505.9 543.634 487.638 549.622C475.448 539.495 468.012 529.751 466.568 513.509C465.058 496.519 470.812 483.701 479.461 469.49C477.346 471.576 475.159 473.614 473.254 475.897C463.084 461.634 451.404 448.706 440.793 434.796Q431.223 422.265 422.02 409.462C419.158 405.411 416.624 401.094 413.531 397.213C411.813 395.058 410.033 393.006 407.563 391.705L406.373 391.811C405.63 392.985 405.823 393.128 406.038 394.527C407.721 396.268 409.796 397.507 410.842 399.74C410.65 400.701 410.47 401.658 410.323 402.627C411.429 403.163 412.479 403.627 413.646 404.022C414.278 404.994 414.916 405.956 415.478 406.971C415.264 407.032 415.051 407.097 414.836 407.154C411.745 407.975 408.769 406.726 406.216 409.264C405.889 410.522 406.161 411.048 406.498 412.282L407.287 413.077C408.01 411.638 407.379 410.808 408.558 409.494C411.787 408.496 413.028 410.453 416.162 408.058C421.954 414.662 426.565 422.733 431.798 429.841C440.308 441.399 449.383 452.364 458.347 463.548C461.31 467.246 465.188 473.701 469.257 475.988C470.334 476.594 470.849 476.789 471.505 477.917C470.424 480.981 468.424 484.073 466.899 486.967Q444.787 461.92 423.778 435.94C417.366 428.147 410.171 420.536 404.382 412.285C402.345 409.382 398.631 404.192 398.524 400.588C398.433 397.538 403.052 395.383 404.887 393.318L404.569 392.555L403.603 392.36C400.726 393.532 398.853 395.936 397.119 398.416C393.992 375.96 381.866 356.418 375.72 334.943C375.073 332.681 374.169 329.672 375.389 327.495L376.398 327.254C384.312 329.344 392.849 363.803 395.522 372.21C396.486 375.24 397.758 378.18 398.791 381.192C399.856 384.292 400.901 389.373 403.209 391.646L404.034 391.6C404.522 390.797 404.774 390.039 404.8 389.089C404.9 385.433 389.87 339.714 387.314 333.181C386.53 331.176 385.563 328.677 383.963 327.196C381.416 324.838 377.483 325.391 374.295 325.45L370.633 329.843C376.166 352.253 387.012 378.742 396.475 399.827C396.12 401.666 395.956 403.555 395.73 405.415C404.08 419.894 415.883 432.749 426.478 445.632C439.077 460.952 451.49 476.918 465.637 490.836L464.192 496.067C446.513 489.342 430.067 479.754 413.742 470.296C403.016 464.082 385.746 451.714 374.024 449.395C362.931 438.326 349.516 429.444 337.123 419.924C328.951 413.646 321.404 406.644 312.805 400.923L307.043 403.53L303.519 408.84C308.616 423.14 352.144 446.821 365.544 458.25L367.403 464.856C373.736 470.623 382.256 474.118 389.618 478.431C413.93 492.669 436.501 507.129 463.872 514.835L464.687 521.232C448.693 521.891 432.816 526.389 417.211 529.741C400.636 533.301 383.965 536.41 367.523 540.562L365.569 544.625C350.641 549.892 288.473 582.959 277.732 592.96C279.672 597.055 282.947 600.337 285.459 604.096C286.959 603.507 288.903 602.988 290.014 601.811C289.296 601.679 288.587 601.536 287.874 601.382C290.849 599.831 294.325 600.285 297.416 598.54C301.453 596.262 304.646 592.695 308.587 590.224C327.583 578.316 347.548 565.65 368.256 556.95L378.134 558.746C379.311 557.363 380.634 555.924 382.022 554.743C385.222 552.024 389.182 550.532 393.211 549.561C399.463 548.054 406.129 547.759 412.51 546.914Q430.3 544.434 448.057 541.728C452.889 540.947 466.148 536.692 470 537.604C471.345 537.923 471.487 538.369 472.226 539.446C471.026 541.985 464.463 543.71 461.882 545.114C456.656 547.958 451.971 551.754 447.335 555.452C426.106 572.381 409.666 593.446 390.676 612.559C387.293 615.964 382.108 617.248 379.325 621.334C375.104 627.532 376.009 636.169 373.753 643.144C368.974 657.924 362.08 671.981 357.223 686.769Q353.303 698.667 349.834 710.704C347.167 720.267 344.986 729.785 341.308 739.036C343.552 749.074 344.573 759.364 346.805 769.426C352.344 794.403 360.864 820.822 370.659 844.448C371.948 847.557 371.827 851.005 373.928 853.78C374.247 850.632 357.583 798.998 355.494 791.523C353.967 786.058 351.83 770.157 348.983 766.812C348.882 766.692 348.769 766.583 348.662 766.468C349.478 757.85 354.79 751.294 359.76 744.602C359.367 742.429 359.082 740.225 359.173 738.011C359.616 727.211 383.647 646.524 390.715 641.247C392.551 639.876 394.098 640.098 396.247 640.19C397.602 640.249 398.94 640.357 399.945 639.288C402.405 636.674 401.697 631.065 401.526 627.729C411.489 613.232 425.332 600.993 437.697 588.56C441.477 584.76 445.747 580.939 449.112 576.767C449.955 575.721 450.581 574.768 450.831 573.428C451.002 572.516 450.932 572.789 450.277 571.999C450.114 571.998 449.95 571.98 449.788 571.997C445.1 572.497 401.545 620.054 397.538 625.498C397.391 629.036 397.774 632.554 398.073 636.076C393.353 634.53 387.813 632.737 384.133 629.268C382.555 627.781 381.832 626.45 381.812 624.233C382.035 623.693 382.073 623.494 382.525 623.008C384.289 621.115 387.537 619.666 389.653 618.018C392.369 615.902 394.717 613.338 397.117 610.882C412.929 594.704 428.129 577.058 445.608 562.697C449.155 566.573 452.553 569.538 457.035 572.296C453.453 578.595 450.16 584.961 447.781 591.823C438.8 617.733 440.648 648.692 452.737 673.309C461.489 691.131 476.178 708.381 495.515 714.866C509.045 719.404 523.592 717.813 536.238 711.381C557.12 700.759 570.931 679.277 577.867 657.489C585.403 633.816 584.823 608.861 574.081 586.303C571.21 580.273 567.257 574.949 564.22 569.027C564.366 569.116 564.515 569.204 564.66 569.296L565.381 569.763C570.956 573.304 575.74 578.918 580.412 583.58C595.329 598.467 609.254 613.638 622.336 630.175C621.31 633.316 620.351 636.392 621.5 639.624C622.099 640.2 622.307 640.624 623.171 640.758C625.511 641.121 627.428 639.314 629.228 638.05C631.58 644.185 634.535 650.075 637.215 656.071C640.478 663.374 643.546 670.855 647.174 677.982C650.479 684.474 655.411 690.141 657.685 697.138C659.882 703.899 660.522 711.351 661.519 718.372C663.997 735.825 666.201 754.47 673.529 770.663C669.587 784.077 666.435 797.679 662.629 811.129C658.438 825.935 653.942 840.622 649.955 855.485C649.417 857.491 648.114 859.291 648.134 861.392C648.702 860.771 648.609 861.01 648.845 860.323L664.518 814.526C668.596 802.404 674.206 788.486 675.307 775.695C675.693 771.213 674.997 768.098 673.366 763.966Q678.02 761.982 682.595 759.824C682.149 747.799 678.689 736.092 676.521 724.318C674.441 713.019 673.855 701.083 669.707 690.285C664.751 677.383 657.055 665.699 652.276 652.703C649.825 646.038 649.101 638.78 646.776 632.054C645.59 628.622 643.683 625.729 641.465 622.891C634.318 613.749 590.098 566.108 581.98 562.184L581.363 562.611L581.82 563.682C581.394 565.231 577.621 567.214 576.165 568.208L574.521 574.172C572.308 572.909 570.424 571.566 568.445 569.97C571.013 568.427 573.671 566.914 576.12 565.187C577.941 563.902 580.176 562.339 580.572 560.012C578.194 553.731 557.934 543.669 551.655 539.793L551.595 538.882C552.427 537.713 552.568 537.436 554.042 537.094C560.007 535.711 585.41 547.861 590.955 545.007C591.882 541.597 587.035 539.604 586.12 536.692C585.12 533.51 588.958 528.194 590.515 525.617C580.403 522.505 570.097 521.371 559.573 520.948C560.077 518.764 560.341 516.496 560.689 514.282C567.315 512.841 573.793 511.028 580.048 508.384C590.157 504.11 656.3 470.177 660.929 464.475C664.242 460.393 656.454 456.31 656.095 452.474L656.79 451.999C659.213 453.078 660.584 455.858 662.685 457.437C663.533 458.075 663.582 458.116 664.671 457.999C665.173 456.845 665.712 455.308 666.692 454.484C670.609 451.191 675.497 448.64 679.648 445.538Q697.325 432.184 714.685 418.42C716.443 411.057 724.078 404.799 728.115 398.321C738.963 380.914 752.561 358.658 758.386 339.073C759.049 336.845 760.545 332.696 759.402 330.591C756.006 331.13 752.21 345.953 750.661 349.427C747.923 355.569 737.152 376.587 733.449 381.183C732.331 382.571 730.938 382.623 729.283 382.839L728.371 382.952L728.305 383.581L729.947 384.459C730.296 389.357 718.965 405.321 715.669 410.017C714.429 408.756 713.396 407.384 712.332 405.973C720.864 390.574 729.748 375.371 738.197 359.923C743.866 349.557 750.96 338.367 753.79 326.878C747.491 332.594 731.345 365.279 726.215 374.518Q717.949 389.579 708.583 403.982C691.946 392.686 678.093 377.783 669.24 359.612C666.67 354.338 665.407 348.538 662.452 343.446L662.077 342.808C669.238 372.727 682.936 382.632 703.361 403.167C689.213 421.011 669.479 431.399 653.633 447.264C654.341 448.075 654.857 448.827 655.374 449.771C654.488 454.383 656.452 458.418 658.489 462.369C650.755 467.296 642.138 470.843 634.125 475.317C610.195 488.677 587.078 502.595 560.992 511.447C560.979 507.897 560.777 504.425 560.451 500.89C567.662 498.686 574.338 495.839 581.759 494.045C581.91 493.078 581.679 493.083 581.169 492.298C582.107 491.155 583.561 490.417 584.838 489.697C590.158 486.699 595.881 484.374 601.268 481.462C606.464 478.653 611.3 475.156 616.596 472.53C618.022 471.823 619.239 471.327 620.818 471.129C621.453 471.593 622.047 471.961 622.755 472.302C622.732 471.402 622.643 470.611 622.975 469.752C623.226 469.102 623.657 469.127 624.256 468.878C626.806 469.037 629.601 470.651 631.944 471.663C630.469 470.357 628.976 469.137 627.85 467.501L628.107 466.444C630.903 465.9 635.371 469.657 637.822 471.218C636.55 469.799 635.139 468.51 633.863 467.096C632.899 466.026 631.802 465.243 631.879 463.776C632.929 463.759 633.643 464.167 634.562 464.615C635.276 464.962 634.799 464.833 635.952 464.732C635.929 463.973 635.842 463.107 636.193 462.4C637.202 460.375 640.502 458.734 642.492 457.943C644.864 457.001 646.275 456.689 648.644 457.745C650.095 456.531 650.955 454.482 651.304 452.657C651.021 452 651.099 451.666 650.341 451.436C648.062 450.742 644.963 452.278 642.903 453.247C630.086 459.275 617.862 467.376 605.446 474.253C590.575 482.491 575.117 489.834 560.016 497.659L558.242 490.821Q566.165 483.25 573.69 475.283Q581.214 467.317 588.322 458.976Q595.43 450.635 602.102 441.942Q608.774 433.248 614.992 424.225C617.884 419.989 621.119 415.707 623.718 411.295C626.696 406.238 624.259 404.776 625.409 401.683C626.665 398.302 629.234 395.115 630.728 391.75C636.185 379.464 654.072 335.092 651.349 324.305L650.751 323.961C648.156 326.469 645.466 340.223 644.018 344.547C639.331 358.538 633.723 372.226 628.512 386.032C625.406 394.259 622.928 403.02 619.032 410.894C617.109 414.781 614.755 418.146 611.968 421.455C609.092 418.267 606.558 414.86 603.996 411.423C606.935 406.293 609.842 401.23 613.788 396.793L618.629 395.515C621.275 390.941 622.825 385.763 624.562 380.793C627.488 372.424 630.484 364.039 633.062 355.557C635.344 348.049 637.099 340.216 640.364 333.059C641.589 330.374 643.342 330.484 645.69 329.405C646.952 328.825 647.397 326.805 647.823 325.583C648.538 323.53 649.438 322.392 650.9 320.763C649.776 308.341 645.233 296.106 641.733 284.198C639.175 275.496 636.927 266.574 633.786 258.068C632.012 253.264 630.622 248.776 624.758 248.621C623.439 248.587 622.18 248.7 620.972 248.076C620.734 247.953 620.504 247.816 620.27 247.686ZM960.037 320.297C959.123 327.53 960.306 335.516 960.313 342.878L960.45 404.554L960.269 599.463L960.224 643.057C960.215 651.522 958.96 667.002 961.395 674.815Q960.906 633.73 961.131 592.644L961.519 424.874L961.476 359.903C961.425 346.955 962.205 333.043 960.037 320.297Z"/>
	<path fill="#FEFEFE" transform="scale(4 4)" d="M490.943 494.609C491.976 495.033 492.276 495.343 492.873 496.282C493.282 498.063 492.806 499.555 492.397 501.302C491.663 500.891 491.6 500.983 491.167 500.316C490.058 498.612 490.639 496.468 490.943 494.609Z"/>
	<path fill="#FEFEFE" transform="scale(4 4)" d="M509.682 512.393L511.599 512.524L512.38 513.904C512.239 514.555 512.109 515.221 511.923 515.862C511.609 516.943 511.56 517.572 510.528 518.162C509.276 516.865 508.777 514.805 508.164 513.135L509.682 512.393Z"/>
	<path fill="#FEFEFE" transform="scale(4 4)" d="M661.794 479.354C661.918 480.077 661.965 480.124 661.887 480.978C661.713 482.91 660.528 485.367 659.983 487.274C658.353 492.985 656.981 499.139 656.907 505.108C656.828 511.403 660.947 527.95 660.278 531.152C660.042 530.641 659.802 530.131 659.588 529.611C652.69 512.882 654.975 495.669 661.794 479.354Z"/>
	<path fill="#D3D1D2" transform="scale(4 4)" d="M516.636 502.962C517.572 503.06 518.255 503.135 519.143 503.468C516.65 506.391 513.448 510.151 512.38 513.904L511.599 512.524L509.682 512.393L508.164 513.135L507.291 513.495C506.531 515.002 505.936 516.527 505.346 518.107L504.599 518.37L504.064 517.558C504.046 515.193 505.22 513.029 505.893 510.788L505.303 510.527C504.461 511.062 503.596 511.539 502.72 512.017L501.935 511.61C501.569 510.425 501.245 509.289 500.5 508.277C500.339 508.058 500.169 507.844 500.003 507.628C500.978 506.295 502.024 505.025 503.068 503.745C503.682 504.261 503.665 504.282 504.226 504.655C506.502 506.169 509.351 507.34 512.114 506.692C514.307 506.178 515.433 504.747 516.636 502.962Z"/>
	<path transform="scale(4 4)" d="M509.682 512.393C508.746 510.993 508.28 510.575 508.215 508.859L508.941 508.28C510.14 508.763 510.602 508.918 511.18 510.195C511.467 510.831 511.511 511.826 511.599 512.524L509.682 512.393Z"/>
	<path fill="#FEFEFE" transform="scale(4 4)" d="M596.38 529.081C604.015 529.542 654.233 538.138 658.659 541.461C659.88 542.378 659.792 543.781 660.038 545.172C653.391 543.984 647.029 541.533 640.404 540.225C627.581 537.692 612.935 537.67 600.732 532.898C598.462 532.01 597.363 531.323 596.38 529.081Z"/>
	<path fill="#FEFEFE" transform="scale(4 4)" d="M742.492 251.805C742.807 252.419 743.052 253.029 743.295 253.677C746.343 261.805 762.407 321.968 760.207 326.878L759.236 326.597C758.32 325.534 758.001 324.72 757.658 323.354C756.182 317.467 755.529 311.26 754.516 305.272C752.945 295.979 750.827 286.276 747.908 277.327C746.296 282.695 750.11 288.393 750.337 293.616C750.436 295.883 749.975 298.257 750.037 300.584C750.196 306.56 751.082 312.355 751.955 318.252C752.426 321.432 753.99 323.94 755.522 326.707C756.199 327.93 756.048 328.005 757.355 328.379C756.448 329.208 756.293 329.012 755.121 329.103C754.401 328.793 753.744 328.505 753.191 327.926C751.089 325.729 750.223 322.229 749.718 319.323C748.836 314.249 748.878 308.915 748.611 303.769C748.175 295.375 747.715 286.892 746.798 278.536C745.817 269.599 742.659 260.826 742.492 251.805Z"/>
	<path fill="#FEFEFE" transform="scale(4 4)" d="M620.27 247.686C610.492 243.023 602.802 223.486 597.672 214.289C593.565 206.925 589.306 199.598 584.524 192.649Q578.807 184.203 571.907 176.692C569.795 174.361 566.31 171.635 564.711 169.113C564.595 168.93 564.586 168.699 564.523 168.492C573.842 172.488 601.537 208.727 608.421 217.939C614.542 226.432 621.911 235.244 624.79 245.488C621.705 242.298 611.6 224.247 608.861 224.045C607.946 223.977 608.272 224.004 607.203 223.787C607.744 222.548 608.237 222.075 607.593 220.768C604.154 213.785 591.788 198.069 586.212 192.73C588.492 197.678 597.3 207.666 597.78 211.255C598.122 213.816 612.359 237.439 614.24 239.156C615.676 240.467 616.984 238.711 618.011 239.985C617.86 240.125 617.706 240.262 617.557 240.404C617.076 240.863 616.699 241.307 616.301 241.833C617.289 244.128 618.965 245.628 620.27 247.686Z"/>
	<path fill="#FEFEFE" transform="scale(4 4)" d="M591.732 525.12C592.555 525.509 593.353 525.95 594.157 526.376C596.57 529.816 593.505 532.549 593.585 536.071C593.633 538.161 594.698 539.514 596.491 540.468C600.67 542.692 606.319 542.964 610.967 543.617C620.908 545.012 643.702 547.079 652.181 550.832C654.513 551.864 656.116 553.208 657.808 555.09C649.694 555.045 640.886 552.167 632.811 550.818C622.319 549.063 611.408 548.199 601.058 545.858C598.061 545.18 594.758 544.214 592.224 542.453C589.238 537.337 590.989 530.698 591.732 525.12Z"/>
	<path fill="#FEFEFE" transform="scale(4 4)" d="M462.911 165.057L462.807 165.692C457.533 173.072 449.676 178.4 444.393 186.057C436.616 197.327 430.001 209.148 423.538 221.205C419.749 228.275 416.265 235.928 411.695 242.503C409.911 245.069 408.181 246.706 405.655 248.481C406.647 246.639 407.888 244.723 408.552 242.741L407.168 242.135C407.483 241.261 407.271 241.545 407.937 240.901C408.602 240.258 409.289 239.628 409.964 238.996C412.692 236.439 431.738 204.169 433.866 199.7L433.497 199.08C429.842 203.271 424.57 208.2 422.13 213.151C421.417 214.599 421.591 216.215 421.049 217.704C420.67 218.747 420.506 217.835 419.764 217.884C418.059 217.996 416.216 221.429 415.327 222.796C413.226 226.026 403.061 243.614 401.16 244.552C401.065 243.918 401.02 243.792 401.067 243.059C401.162 241.566 401.608 239.624 402.24 238.26C407.452 227.001 436.81 191.361 446.006 181.318C451.295 175.542 456.797 169.964 462.911 165.057Z"/>
	<path transform="scale(4 4)" d="M960.037 320.297C962.205 333.043 961.425 346.955 961.476 359.903L961.519 424.874L961.131 592.644Q960.906 633.732 961.395 674.815C958.96 667.002 960.215 651.522 960.224 643.057L960.269 599.463L960.45 404.554L960.313 342.878C960.306 335.516 959.123 327.53 960.037 320.297Z"/>
	<path fill="#FEFEFE" transform="scale(4 4)" d="M276.26 597.289C277.22 598.151 277.587 598.309 277.903 599.538C277.291 600.634 277.011 601.214 277.039 602.479C278.248 603.298 280.495 602.247 282.122 602.627L282.185 603.563C277.698 611.323 268.943 617.876 262.744 624.409Q251.382 636.44 240.867 649.218C236.66 654.359 232.542 659.675 228.759 665.134C225.466 669.887 222.884 676.158 218.593 680.026C219.966 676.892 221.502 673.935 223.189 670.959C227.4 664.496 231.544 657.858 235.394 651.173C237.519 647.483 239.307 643.602 241.643 640.035C245.623 633.96 250.508 628.534 255.069 622.9C259.241 617.748 263.284 611.985 268.199 607.518C269.831 606.034 271.519 605.004 273.478 604.007C270.941 606.433 264.739 611.49 264.53 615.116L265.201 615.239C269.962 613.27 273.506 609.203 276.514 605.153C276.386 604.915 276.262 604.674 276.13 604.437C275.714 603.69 275.135 602.883 274.886 602.062C274.395 600.443 275.55 598.699 276.26 597.289Z"/>
	<path fill="#FEFEFE" transform="scale(4 4)" d="M276.711 342.082C278.05 342.277 279.304 342.494 280.409 343.335C290.259 350.827 306.782 389.728 308.541 401.941C300.352 391.937 287.761 353.764 279.243 347.759C278.457 348.363 278.646 348.909 278.507 349.856L278.621 349.912L277.949 349.736C277.968 349.539 278.009 349.343 278.007 349.144C277.995 347.734 277.826 345.474 276.916 344.369C275.41 344.356 274.825 344.978 273.57 345.771C276.878 364.992 299.886 386.835 303.211 406.029C295.683 399.113 276.804 365.753 272.67 355.432C271.575 352.698 269.584 347.77 271.189 345.016C272.308 343.095 274.745 342.63 276.711 342.082Z"/>
	<path fill="#FEFEFE" transform="scale(4 4)" d="M397.389 246.831C399.213 247.218 401.384 247.962 402.905 249.064C404.483 250.207 405.065 251.548 405.312 253.447C405.695 256.382 405.182 259.435 404.482 262.291C402.316 271.116 387.675 315.732 382.929 321.665L382.312 321.446C381.078 316.068 385.025 309.07 386.777 303.91C389.26 296.594 391.25 289.114 393.726 281.796C396.513 273.557 400.443 265.354 401.862 256.749C402.296 254.116 402.157 252.329 401.382 249.766L400.742 249.736C390.946 254.496 380.798 315.021 374.183 321.422L373.27 321.22C372.972 320.673 372.78 320.18 372.738 319.551C372.388 314.342 388.189 264.865 391.326 257.27C392.925 253.4 394.73 250.073 397.389 246.831Z"/>
	<path fill="#FEFEFE" transform="scale(4 4)" d="M286.354 216.361C287.691 227.091 283.157 242.254 281.719 253.301C279.332 271.649 277.296 290.46 275.914 308.901C275.688 311.905 275.323 314.969 275.537 317.981C275.938 323.617 278.64 331.199 276.233 336.536C275.6 337.938 274.821 338.433 273.42 338.933C271.694 338.616 270.441 338.387 268.991 337.368C266.292 332.057 264.485 325.816 264.702 319.829C265.161 307.188 269.818 294.408 272.745 282.135C277.934 260.375 283.152 238.514 286.354 216.361Z"/>
	<path transform="scale(4 4)" d="M269.573 310.823C271.216 311.838 272.42 313.006 273.092 314.834C273.624 316.278 273.181 317.119 272.597 318.446C272.084 319.614 271.746 320.458 271.606 321.721C272.295 321.987 272.833 322.256 273.467 322.621C274.575 326.764 275.227 331.736 274.851 336.014C273.943 336.077 273.347 336.149 272.482 335.787C271.051 335.189 270.14 333.004 269.656 331.633C267.832 326.469 267.242 315.906 269.573 310.823Z"/>
	<path transform="scale(4 4)" d="M269.573 310.823C268.64 305.602 275.489 275.869 277.548 269.84C278.017 274.478 274.514 305.679 273.194 310.632C271.962 311.256 270.882 310.992 269.573 310.823Z"/>
	<path fill="#FEFEFE" transform="scale(4 4)" d="M482.13 486.287C482.449 484.855 482.758 483.402 483.211 482.006C485.077 476.247 490.189 471.786 495.399 469.032C503.722 464.633 512.274 462.578 521.498 465.476C528.656 467.725 536.487 473.706 539.629 480.702C540.076 481.697 540.479 482.79 540.112 483.828C537.557 478.9 533.237 474.188 528.946 470.708C525.247 467.709 518.366 464.704 513.496 465.209C514.102 466.554 519.75 467.031 521.374 467.696C524.159 468.837 526.593 470.298 528.683 472.477C525.641 470.962 522.476 469.259 519.212 468.28C517.179 467.67 515.511 467.091 513.55 468.146C519.842 469.886 525.928 471.87 529.888 477.585C532.956 482.013 533.949 490.783 532.922 496.08L532.513 495.855C531.722 494.154 530.423 491.144 531.126 489.36C531.542 488.307 532.009 487.593 532.026 486.425C532.08 482.608 528.864 478.412 526.28 475.786C521.815 471.251 517.265 469.967 511.136 469.968C517.215 471.759 521.635 473.741 525.327 479.297Q525.537 479.619 525.734 479.948Q525.932 480.277 526.117 480.613Q526.302 480.949 526.475 481.292Q526.647 481.635 526.807 481.984Q526.967 482.333 527.114 482.688Q527.26 483.042 527.394 483.402Q527.527 483.762 527.647 484.127Q527.767 484.491 527.874 484.86Q527.98 485.229 528.073 485.602Q528.165 485.974 528.244 486.35Q528.323 486.725 528.388 487.104Q528.453 487.482 528.503 487.863Q528.554 488.243 528.591 488.625Q528.627 489.007 528.65 489.391Q528.672 489.774 528.68 490.158Q528.688 490.541 528.682 490.925Q528.676 491.309 528.656 491.692Q528.635 492.076 528.601 492.458Q528.566 492.84 528.518 493.221Q528.469 493.602 528.406 493.98Q528.344 494.359 528.267 494.735Q528.19 495.111 528.099 495.484Q528.009 495.857 527.904 496.227Q527.8 496.596 527.682 496.961Q527.564 497.326 527.432 497.687Q527.301 498.048 527.156 498.403Q527.011 498.759 526.853 499.109Q526.695 499.458 526.525 499.802Q526.354 500.146 526.17 500.483Q525.987 500.82 525.791 501.151Q525.595 501.481 525.388 501.804Q525.18 502.126 524.96 502.441C522.356 506.222 518.394 509.42 517.531 514.07C517.289 515.375 517.061 516.477 516.593 517.719L515.434 518.097C515.174 517.515 515.099 517.412 514.947 516.715C514.049 512.6 518.402 508.022 520.528 504.805C521.576 503.219 522.293 502.173 521.9 500.249L521.409 500.059C520.266 500.88 519.765 502.245 519.143 503.468C518.255 503.135 517.572 503.06 516.636 502.962C515.433 504.747 514.307 506.178 512.114 506.692C509.351 507.34 506.502 506.169 504.226 504.655C503.665 504.282 503.682 504.261 503.068 503.745C502.024 505.025 500.978 506.295 500.003 507.628C499.358 506.007 498.681 502.948 497.162 502.028C495.217 502.806 494.163 505.487 493.33 507.272L493.081 507.814C492.854 506.297 492.789 505.311 493.087 503.809C493.695 503.2 494.292 502.604 494.789 501.898C497.104 498.608 495.646 493.744 495.051 490.047C496.785 486.209 501.195 481.284 502.074 478.6C502.339 477.792 502.368 478.106 502.02 477.459C495.682 480.58 493.43 488.962 490.785 494.973C490.939 492.718 490.83 490.21 491.417 488.026C493.407 480.62 500.989 475.119 507.212 471.343C508.784 472.339 510.208 473.521 511.659 474.681C508.539 475.894 505.923 477.215 503.229 479.19C506.185 478.519 509.13 477.779 512.078 477.071Q516.578 479.406 521.209 481.468C522.561 485.314 523.948 489.352 523.486 493.498C523.323 494.967 522.732 496.406 522.582 497.861C522.452 499.126 522.512 499.284 523.366 500.166C524.573 499.636 525.209 498.68 525.824 497.536C527.818 493.826 526.775 488.54 525.452 484.729C523.17 478.155 518.591 473.713 512.463 470.734L512.974 471.498C514.973 474.546 517.649 476.494 519.858 479.291C518.25 480.131 511.807 470.887 507.589 470.837C499.96 470.747 493.819 480.693 488.971 485.457L488.516 485.899C491.148 480.214 494.87 474.629 500.572 471.629C502.142 470.803 503.891 470.514 505.164 469.199L504.888 468.493L503.673 468.243C498.665 469.56 493.295 475.113 489.366 478.35C490.765 475.06 498.132 470.025 501.183 467.494C489.749 471.687 488.768 477.012 482.452 485.844L482.13 486.287Z"/>
	<path fill="#D3D1D2" transform="scale(4 4)" d="M516.225 487.982L516.866 488.296L515.681 489.883C516.906 490.841 518.283 491.806 519.183 493.093C519.933 494.165 520.283 495.307 519.898 496.607C519.457 498.092 518.267 499.398 516.898 500.087C513.818 501.637 511.284 501.555 508.093 500.52L507.749 500.055L507.946 499.514C509.014 499.818 510.071 500.105 511.156 500.346L512.156 499.703C513.005 498.2 513.51 497.141 513.702 495.416C512.93 493.706 510.365 492.245 508.871 491.109C511.308 489.812 513.583 488.8 516.225 487.982Z"/>
	<path transform="scale(4 4)" d="M503.068 503.745C499.748 500.176 497.598 496.331 497.852 491.284C498.024 487.851 499.54 484.468 502.211 482.259C506.554 478.667 511.39 479.208 516.576 479.77C512.463 480.504 508.507 480.995 504.564 482.456C501.958 486.332 500.268 489.962 501.016 494.754C501.469 497.656 502.952 500.421 505.426 502.073C509.136 504.55 512.563 503.734 516.636 502.962C515.433 504.747 514.307 506.178 512.114 506.692C509.351 507.34 506.502 506.169 504.226 504.655C503.665 504.282 503.682 504.261 503.068 503.745Z"/>
	<path fill="#FEFEFE" transform="scale(4 4)" d="M663.886 544.307C664.538 544.382 664.71 544.381 665.303 544.517C672.836 546.246 686.695 557.312 694.117 561.827C709.392 571.12 725.177 579.73 740.002 589.739C742.747 591.591 746.704 593.855 748.485 596.714C747.01 599.34 742.664 600.425 739.972 601.441C745.767 605.598 751.611 609.738 756.919 614.516C775.524 631.263 791.003 653.873 802.855 675.784C803.431 676.488 803.301 676.088 803.261 676.981C800.063 673.755 794.613 663.316 791.46 658.821C779.543 641.832 764.827 624.516 748.563 611.555C730.355 597.043 708.633 585.869 688.387 574.448C679.25 569.293 668.45 564.189 660.602 557.247C659.281 556.079 658.548 554.888 658.525 553.052C658.481 549.514 661.672 546.705 663.886 544.307Z"/>
	<path transform="scale(4 4)" d="M665.106 546.707C671.964 550.542 677.968 555.869 684.597 560.113C704.656 572.957 725.026 585.466 746.509 595.792C743.95 597.375 741.335 598.675 738.623 599.97C730.215 596.296 715.945 585.951 707.279 580.624C697.347 574.519 686.763 569.37 677.064 562.916L676.908 562.118L678.68 559.795L678.533 559.238C677.329 559.496 675.715 561.452 674.767 562.349C673.686 561.612 672.572 560.865 671.665 559.914C669.229 557.359 664.061 556.535 662.419 553.956C661.931 551.161 663.717 548.969 665.106 546.707Z"/>
	<path fill="#FEFEFE" transform="scale(4 4)" d="M401.167 716.7C402.002 716.635 402.81 716.605 403.648 716.622C447.863 717.56 481.17 739.578 510.491 770.379C510.465 756.522 510.625 742.916 512.119 729.119C513.347 743.236 513.541 756.972 513.528 771.137C528.109 753.089 543.647 735.475 565.373 725.957C589.569 715.356 620.591 715.546 645.17 725.053C638.496 724.558 631.949 722.851 625.363 721.704C618.726 720.548 611.816 720.116 605.084 720.153C576.548 720.313 551.621 733.462 531.927 753.457C526.393 759.076 519.091 765.762 516.226 773.202C512.667 782.447 514.323 833.726 514.429 847.574C522.816 836.794 531.579 826.566 542.097 817.78C573.196 791.801 607.23 786.156 646.334 789.519C630.132 791.859 614.095 789.971 597.919 793.844C563.682 802.041 533.319 826.428 514.939 856.139L515.044 923.006C544.142 885.156 591.672 855.94 638.944 848.179C637.402 851.716 635.969 855.308 634.485 858.869C621.366 862.834 608.477 867.013 595.841 872.333C564.132 887.048 531.968 912.669 513.617 942.619C513.241 955.122 513.363 967.642 512.875 980.147C512.802 982.018 511.781 990.623 512.156 991.53L512.33 990.625L511.827 990.552C510.232 974.696 510.798 958.09 510.551 942.127C479.384 898.498 437.357 870.621 385.668 857.124Q384.859 852.184 384.308 847.208C418.013 852.364 460.643 876.045 486.051 898.489C494.675 906.108 502.12 914.551 509.43 923.413Q509.276 889.501 509.537 855.592C485.875 820.636 450.986 795.517 408.513 789.77C403.37 789.074 381.768 788.608 379.059 787.354C388.23 786.067 397.87 786.649 407.067 787.586C451.303 792.09 482.696 814.013 510.073 847.501C509.382 823.623 509.694 799.859 509.941 775.979C503.913 766.552 496.274 758.451 487.714 751.286C465.699 732.857 436.782 719.076 407.812 717.983C399.622 717.674 391.606 718.805 383.473 719.52L383.36 719.843L381.989 719.628C388.341 718.057 394.668 717.3 401.167 716.7Z"/>
	<path fill="#FEFEFE" transform="scale(4 4)" d="M620.27 247.686C620.504 247.816 620.734 247.953 620.972 248.076C622.18 248.7 623.439 248.587 624.758 248.621C630.622 248.776 632.012 253.264 633.786 258.068C636.927 266.574 639.175 275.496 641.733 284.198C645.233 296.106 649.776 308.341 650.9 320.763C649.438 322.392 648.538 323.53 647.823 325.583C647.397 326.805 646.952 328.825 645.69 329.405C643.342 330.484 641.589 330.374 640.364 333.059C637.099 340.216 635.344 348.049 633.062 355.557C630.484 364.039 627.488 372.424 624.562 380.793C622.825 385.763 621.275 390.941 618.629 395.515L613.788 396.793C609.842 401.23 606.935 406.293 603.996 411.423C606.558 414.86 609.092 418.267 611.968 421.455C614.755 418.146 617.109 414.781 619.032 410.894C622.928 403.02 625.406 394.259 628.512 386.032C633.723 372.226 639.331 358.538 644.018 344.547C645.466 340.223 648.156 326.469 650.751 323.961L651.349 324.305C654.072 335.092 636.185 379.464 630.728 391.75C629.234 395.115 626.665 398.302 625.409 401.683C624.259 404.776 626.696 406.238 623.718 411.295C621.119 415.707 617.884 419.989 614.992 424.225Q608.774 433.248 602.102 441.942Q595.43 450.635 588.322 458.976Q581.214 467.317 573.69 475.283Q566.165 483.25 558.242 490.821L560.016 497.659C575.117 489.834 590.575 482.491 605.446 474.253C617.862 467.376 630.086 459.275 642.903 453.247C644.963 452.278 648.062 450.742 650.341 451.436C651.099 451.666 651.021 452 651.304 452.657C650.955 454.482 650.095 456.531 648.644 457.745C646.275 456.689 644.864 457.001 642.492 457.943C640.502 458.734 637.202 460.375 636.193 462.4C635.842 463.107 635.929 463.973 635.952 464.732C634.799 464.833 635.276 464.962 634.562 464.615C633.643 464.167 632.929 463.759 631.879 463.776C631.802 465.243 632.899 466.026 633.863 467.096C635.139 468.51 636.55 469.799 637.822 471.218C635.371 469.657 630.903 465.9 628.107 466.444L627.85 467.501C628.976 469.137 630.469 470.357 631.944 471.663C629.601 470.651 626.806 469.037 624.256 468.878C623.657 469.127 623.226 469.102 622.975 469.752C622.643 470.611 622.732 471.402 622.755 472.302C622.047 471.961 621.453 471.593 620.818 471.129C619.239 471.327 618.022 471.823 616.596 472.53C611.3 475.156 606.464 478.653 601.268 481.462C595.881 484.374 590.158 486.699 584.838 489.697C583.561 490.417 582.107 491.155 581.169 492.298C581.679 493.083 581.91 493.078 581.759 494.045C574.338 495.839 567.662 498.686 560.451 500.89C560.777 504.425 560.979 507.897 560.992 511.447C587.078 502.595 610.195 488.677 634.125 475.317C642.138 470.843 650.755 467.296 658.489 462.369C656.452 458.418 654.488 454.383 655.374 449.771C654.857 448.827 654.341 448.075 653.633 447.264C669.479 431.399 689.213 421.011 703.361 403.167C682.936 382.632 669.238 372.727 662.077 342.808L662.452 343.446C665.407 348.538 666.67 354.338 669.24 359.612C678.093 377.783 691.946 392.686 708.583 403.982Q717.949 389.579 726.215 374.518C731.345 365.279 747.491 332.594 753.79 326.878C750.96 338.367 743.866 349.557 738.197 359.923C729.748 375.371 720.864 390.574 712.332 405.973C713.396 407.384 714.429 408.756 715.669 410.017C718.965 405.321 730.296 389.357 729.947 384.459L728.305 383.581L728.371 382.952L729.283 382.839C730.938 382.623 732.331 382.571 733.449 381.183C737.152 376.587 747.923 355.569 750.661 349.427C752.21 345.953 756.006 331.13 759.402 330.591C760.545 332.696 759.049 336.845 758.386 339.073C752.561 358.658 738.963 380.914 728.115 398.321C724.078 404.799 716.443 411.057 714.685 418.42Q697.325 432.184 679.648 445.538C675.497 448.64 670.609 451.191 666.692 454.484C665.712 455.308 665.173 456.845 664.671 457.999C663.582 458.116 663.533 458.075 662.685 457.437C660.584 455.858 659.213 453.078 656.79 451.999L656.095 452.474C656.454 456.31 664.242 460.393 660.929 464.475C656.3 470.177 590.157 504.11 580.048 508.384C573.793 511.028 567.315 512.841 560.689 514.282C560.341 516.496 560.077 518.764 559.573 520.948C570.097 521.371 580.403 522.505 590.515 525.617C588.958 528.194 585.12 533.51 586.12 536.692C587.035 539.604 591.882 541.597 590.955 545.007C585.41 547.861 560.007 535.711 554.042 537.094C552.568 537.436 552.427 537.713 551.595 538.882L551.655 539.793C557.934 543.669 578.194 553.731 580.572 560.012C580.176 562.339 577.941 563.902 576.12 565.187C573.671 566.914 571.013 568.427 568.445 569.97C570.424 571.566 572.308 572.909 574.521 574.172L576.165 568.208C577.621 567.214 581.394 565.231 581.82 563.682L581.363 562.611L581.98 562.184C590.098 566.108 634.318 613.749 641.465 622.891C643.683 625.729 645.59 628.622 646.776 632.054C649.101 638.78 649.825 646.038 652.276 652.703C657.055 665.699 664.751 677.383 669.707 690.285C673.855 701.083 674.441 713.019 676.521 724.318C678.689 736.092 682.149 747.799 682.595 759.824Q678.02 761.982 673.366 763.966C674.997 768.098 675.693 771.213 675.307 775.695C674.206 788.486 668.596 802.404 664.518 814.526L648.845 860.323C648.609 861.01 648.702 860.771 648.134 861.392C648.114 859.291 649.417 857.491 649.955 855.485C653.942 840.622 658.438 825.935 662.629 811.129C666.435 797.679 669.587 784.077 673.529 770.663C666.201 754.47 663.997 735.825 661.519 718.372C660.522 711.351 659.882 703.899 657.685 697.138C655.411 690.141 650.479 684.474 647.174 677.982C643.546 670.855 640.478 663.374 637.215 656.071C634.535 650.075 631.58 644.185 629.228 638.05C627.428 639.314 625.511 641.121 623.171 640.758C622.307 640.624 622.099 640.2 621.5 639.624C620.351 636.392 621.31 633.316 622.336 630.175C609.254 613.638 595.329 598.467 580.412 583.58C575.74 578.918 570.956 573.304 565.381 569.763L564.66 569.296C564.515 569.204 564.366 569.116 564.22 569.027C567.257 574.949 571.21 580.273 574.081 586.303C584.823 608.861 585.403 633.816 577.867 657.489C570.931 679.277 557.12 700.759 536.238 711.381C523.592 717.813 509.045 719.404 495.515 714.866C476.178 708.381 461.489 691.131 452.737 673.309C440.648 648.692 438.8 617.733 447.781 591.823C450.16 584.961 453.453 578.595 457.035 572.296C452.553 569.538 449.155 566.573 445.608 562.697C428.129 577.058 412.929 594.704 397.117 610.882C394.717 613.338 392.369 615.902 389.653 618.018C387.537 619.666 384.289 621.115 382.525 623.008C382.073 623.494 382.035 623.693 381.812 624.233C381.832 626.45 382.555 627.781 384.133 629.268C387.813 632.737 393.353 634.53 398.073 636.076C397.774 632.554 397.391 629.036 397.538 625.498C401.545 620.054 445.1 572.497 449.788 571.997C449.95 571.98 450.114 571.998 450.277 571.999C450.932 572.789 451.002 572.516 450.831 573.428C450.581 574.768 449.955 575.721 449.112 576.767C445.747 580.939 441.477 584.76 437.697 588.56C425.332 600.993 411.489 613.232 401.526 627.729C401.697 631.065 402.405 636.674 399.945 639.288C398.94 640.357 397.602 640.249 396.247 640.19C394.098 640.098 392.551 639.876 390.715 641.247C383.647 646.524 359.616 727.211 359.173 738.011C359.082 740.225 359.367 742.429 359.76 744.602C354.79 751.294 349.478 757.85 348.662 766.468C348.769 766.583 348.882 766.692 348.983 766.812C351.83 770.157 353.967 786.058 355.494 791.523C357.583 798.998 374.247 850.632 373.928 853.78C371.827 851.005 371.948 847.557 370.659 844.448C360.864 820.822 352.344 794.403 346.805 769.426C344.573 759.364 343.552 749.074 341.308 739.036C344.986 729.785 347.167 720.267 349.834 710.704Q353.303 698.667 357.223 686.769C362.08 671.981 368.974 657.924 373.753 643.144C376.009 636.169 375.104 627.532 379.325 621.334C382.108 617.248 387.293 615.964 390.676 612.559C409.666 593.446 426.106 572.381 447.335 555.452C451.971 551.754 456.656 547.958 461.882 545.114C464.463 543.71 471.026 541.985 472.226 539.446C471.487 538.369 471.345 537.923 470 537.604C466.148 536.692 452.889 540.947 448.057 541.728Q430.3 544.434 412.51 546.914C406.129 547.759 399.463 548.054 393.211 549.561C389.182 550.532 385.222 552.024 382.022 554.743C380.634 555.924 379.311 557.363 378.134 558.746L368.256 556.95C347.548 565.65 327.583 578.316 308.587 590.224C304.646 592.695 301.453 596.262 297.416 598.54C294.325 600.285 290.849 599.831 287.874 601.382C288.587 601.536 289.296 601.679 290.014 601.811C288.903 602.988 286.959 603.507 285.459 604.096C282.947 600.337 279.672 597.055 277.732 592.96C288.473 582.959 350.641 549.892 365.569 544.625L367.523 540.562C383.965 536.41 400.636 533.301 417.211 529.741C432.816 526.389 448.693 521.891 464.687 521.232L463.872 514.835C436.501 507.129 413.93 492.669 389.618 478.431C382.256 474.118 373.736 470.623 367.403 464.856L365.544 458.25C352.144 446.821 308.616 423.14 303.519 408.84L307.043 403.53L312.805 400.923C321.404 406.644 328.951 413.646 337.123 419.924C349.516 429.444 362.931 438.326 374.024 449.395C385.746 451.714 403.016 464.082 413.742 470.296C430.067 479.754 446.513 489.342 464.192 496.067L465.637 490.836C451.49 476.918 439.077 460.952 426.478 445.632C415.883 432.749 404.08 419.894 395.73 405.415C395.956 403.555 396.12 401.666 396.475 399.827C387.012 378.742 376.166 352.253 370.633 329.843L374.295 325.45C377.483 325.391 381.416 324.838 383.963 327.196C385.563 328.677 386.53 331.176 387.314 333.181C389.87 339.714 404.9 385.433 404.8 389.089C404.774 390.039 404.522 390.797 404.034 391.6L403.209 391.646C400.901 389.373 399.856 384.292 398.791 381.192C397.758 378.18 396.486 375.24 395.522 372.21C392.849 363.803 384.312 329.344 376.398 327.254L375.389 327.495C374.169 329.672 375.073 332.681 375.72 334.943C381.866 356.418 393.992 375.96 397.119 398.416C398.853 395.936 400.726 393.532 403.603 392.36L404.569 392.555L404.887 393.318C403.052 395.383 398.433 397.538 398.524 400.588C398.631 404.192 402.345 409.382 404.382 412.285C410.171 420.536 417.366 428.147 423.778 435.94Q444.787 461.92 466.899 486.967C468.424 484.073 470.424 480.981 471.505 477.917C470.849 476.789 470.334 476.594 469.257 475.988C465.188 473.701 461.31 467.246 458.347 463.548C449.383 452.364 440.308 441.399 431.798 429.841C426.565 422.733 421.954 414.662 416.162 408.058C413.028 410.453 411.787 408.496 408.558 409.494C407.379 410.808 408.01 411.638 407.287 413.077L406.498 412.282C406.161 411.048 405.889 410.522 406.216 409.264C408.769 406.726 411.745 407.975 414.836 407.154C415.051 407.097 415.264 407.032 415.478 406.971C414.916 405.956 414.278 404.994 413.646 404.022C412.479 403.627 411.429 403.163 410.323 402.627C410.47 401.658 410.65 400.701 410.842 399.74C409.796 397.507 407.721 396.268 406.038 394.527C405.823 393.128 405.63 392.985 406.373 391.811L407.563 391.705C410.033 393.006 411.813 395.058 413.531 397.213C416.624 401.094 419.158 405.411 422.02 409.462Q431.223 422.265 440.793 434.796C451.404 448.706 463.084 461.634 473.254 475.897C475.159 473.614 477.346 471.576 479.461 469.49C470.812 483.701 465.058 496.519 466.568 513.509C468.012 529.751 475.448 539.495 487.638 549.622C505.9 543.634 517.979 544.85 536.166 550.083C544.555 544.06 551.955 536.409 555.237 526.442C559.449 513.645 558.973 495.765 552.92 483.582C550.729 479.172 547.497 475.337 545.283 470.887L544.937 470.184C546.827 472.059 548.538 474.09 550.279 476.102C559.744 461.383 572.527 448.6 582.967 434.504C591.796 422.584 599.006 408.258 608.569 397.242C610.727 394.756 613.412 393.579 616.395 392.418C621.897 380.393 627.014 362.606 631.032 349.623C633.105 342.924 634.667 335.52 638.058 329.353C641.055 327.494 644.091 326.471 647.421 325.38C645.434 323.897 643.356 322.843 641.146 321.75Q640.331 320.313 639.638 318.812C634.69 308.234 632.049 296.642 628.395 285.584C625.43 276.609 621.063 267.567 619.486 258.243C618.82 254.305 618.9 251.443 620.27 247.686ZM507.579 548.179C490.072 550.441 473.339 558.377 462.46 572.588C447.713 591.85 444.373 619.884 447.705 643.262C451.028 666.579 463.377 690.755 482.552 704.926C493.066 712.695 505.348 716.261 518.367 714.773C539.017 709.421 554.345 697.615 565.201 679.188C577.968 657.517 582.524 628.566 576.118 604.166C571.245 585.603 560.482 566.884 543.484 557.055C533.223 551.123 519.485 547.224 507.579 548.179Z"/>
	<path transform="scale(4 4)" d="M464.401 562.52L464.775 562.942C464.707 563.396 464.722 563.514 464.467 563.974C463.122 566.402 458.822 569.275 456.282 570.257C455.864 569.655 455.722 569.198 455.502 568.507C456.642 565.543 461.728 563.83 464.401 562.52Z"/>
	<path transform="scale(4 4)" d="M343.208 738.96C346.368 738.829 350.449 739.425 353.026 741.399C353.777 741.974 354.449 742.869 354.53 743.828C354.689 745.729 353.553 746.944 352.375 748.252C351.373 748.601 350.57 748.861 349.746 749.543L350.584 750.986C349.997 752.739 348.697 753.886 347.456 755.199C345.594 751.804 345.9 747.213 345.842 743.445C347.668 744.138 349.484 744.575 351.386 745.007L351.325 745.413L352.457 744.819C352.013 744.242 352.232 744.382 351.612 744.094C348.695 742.738 346.051 741.52 343.626 739.345C343.485 739.218 343.348 739.088 343.208 738.96Z"/>
	<path transform="scale(4 4)" d="M559.27 523.062C567.474 526.135 576.845 526.463 585.504 527.176C584.99 529.349 582.608 534.148 582.904 536.005C583.726 537.302 584.321 538.528 584.884 539.954C575.015 538.965 564.799 536.118 555.32 533.237L559.27 523.062Z"/>
	<path transform="scale(4 4)" d="M475.342 542.485C479.095 543.124 483.281 547.808 485.936 550.29Q478.179 553.269 470.784 557.058Q463.389 560.847 456.439 565.402L453.354 568.144C451.113 565.906 449.4 563.668 447.926 560.871C456.258 553.289 465.119 547.244 475.342 542.485Z"/>
	<path transform="scale(4 4)" d="M548.114 542.848C556.435 544.62 570.281 556.401 577.096 562.237C573.711 564.044 570.489 566.199 567.242 568.244C561.775 567.197 554.072 559.569 549.101 556.409C545.656 554.219 541.958 552.507 538.265 550.786C541.688 548.374 544.878 545.509 548.114 542.848Z"/>
	<path transform="scale(4 4)" d="M624.005 250.209C624.158 250.254 624.315 250.285 624.464 250.342C626.418 251.084 627.407 252.707 628.297 254.49C633.687 265.299 636.172 279.387 639.724 291.016C642.112 298.836 645.338 306.42 647.391 314.348C647.847 316.109 648.697 318.791 647.947 320.522C647.627 321.264 646.533 321.402 645.83 321.674C643.962 320.835 643.057 319.984 642.259 318.073C640.712 314.373 639.888 310.198 638.809 306.33C636.992 299.813 635.141 293.261 633.086 286.816C630.634 279.126 626.913 271.57 624.773 263.851C624.45 262.687 624.951 259.062 624.49 258.514C623.913 257.828 622.884 258.526 622.383 257.12C621.485 254.601 622.798 252.339 624.005 250.209Z"/>
	<path transform="scale(4 4)" d="M308.752 404.732C318.142 406.919 343.499 429.941 352.2 436.89C358.403 441.844 364.624 446.582 371.418 450.71L367.929 455.056C362.553 453.171 320.862 422.023 314.358 416.732C311.307 414.25 308.555 411.65 305.908 408.744L308.752 404.732Z"/>
	<path transform="scale(4 4)" d="M706.555 405.248C708.376 406.017 710.183 407.242 711.663 408.55C713.477 410.153 714.267 411.793 714.442 414.18L713.853 414.575C711.303 413.257 709.453 410.998 706.712 410.041L706.307 410.39C706.356 410.632 706.383 410.879 706.454 411.114C707.129 413.363 709.895 414.626 711.799 415.758C705.752 421.247 698.966 425.859 692.43 430.737C685.078 436.223 677.844 441.879 670.545 447.437C667.96 449.453 665.238 451.332 662.589 453.267C660.975 451.572 659.585 449.615 658.144 447.77C660.762 445.459 694.547 418.73 695.052 418.581C695.734 418.381 696.402 418.198 697.08 417.983L697.962 417.71L697.727 416.527C700.021 412.553 703.768 408.97 706.555 405.248Z"/>
	<path transform="scale(4 4)" d="M364.362 548.575C364.802 549.039 364.873 549.077 365.264 549.704C366.013 550.907 366.549 552.305 366.301 553.718C361.842 557.256 353.805 559.654 348.524 562.593C333.014 571.226 317.855 580.575 302.625 589.693C301.06 587.511 299.459 585.658 297.562 583.758C298.674 586.207 299.93 588.592 301.145 590.991C296.73 595.705 291.664 597.865 285.553 599.445C283.679 597.887 282.788 595.252 281.824 593.078C287.253 589.024 294.063 585.163 300.294 582.503C301.944 582.78 302.502 583.539 303.756 584.612L304.409 584.489C304.585 582.964 302.962 582.898 302.655 581.344C310.063 576.35 318.764 572.649 326.644 568.364C339.045 561.621 351.032 553.356 364.362 548.575Z"/>
	<path transform="scale(4 4)" d="M602.76 413.492C605.681 416.495 607.726 420.047 610.933 422.904C594.714 444.688 577.813 465.546 558.854 485.021L557.686 485.84L556.558 485.489C554.642 483.585 553.656 480.904 552.506 478.49C557.995 473.129 562.837 467.053 567.724 461.147Q577.261 449.825 586.029 437.898Q594.798 425.971 602.76 413.492Z"/>
	<path transform="scale(4 4)" d="M380.571 628.355C381.801 629.43 382.293 631.1 382.923 632.57L390.185 637.189C387.324 639.606 385.641 642.192 383.979 645.499C377.446 658.494 373.379 673.749 369.019 687.634C363.659 704.705 357.323 721.972 354.898 739.739L354.159 740.259C351.434 738.953 348.654 737.894 345.826 736.839Q349.732 721.9 354.251 707.135C358.242 694.45 363.022 682.043 367.589 669.56C370.094 662.715 372.266 655.399 375.308 648.789C376.122 647.02 377.212 645.145 378.705 643.859C378.899 643.692 379.101 643.536 379.298 643.374L377.636 643.277C378.655 638.4 379.133 633.064 380.571 628.355Z"/>
	<path transform="scale(4 4)" d="M581.021 567.377C583.756 567.451 585.597 569.12 587.612 570.804C594.219 576.327 599.745 583.374 605.589 589.697C612.68 597.369 620.119 604.733 627.099 612.506C630.727 616.544 634.456 622.036 638.754 625.245C639.996 626.172 641.82 626.594 643.293 627.023C636.677 629.592 630.837 633.915 624.701 637.434C623.946 637.495 624.333 637.573 623.583 637.045C624.983 630.219 630.458 626.633 634.899 621.764C630.987 622.985 627.906 624.654 624.498 626.863C617.321 618.096 610.231 609.311 602.472 601.04C595.002 593.076 586.946 585.661 579.701 577.484C578.359 575.969 576.54 574.426 576.932 572.196C577.321 569.985 579.391 568.67 581.021 567.377Z"/>
	<path transform="scale(4 4)" d="M463.731 524.158L464.387 524.119C466.872 525.501 468.303 531.269 469.23 533.816C459.389 535.443 449.633 537.641 439.749 538.998C420.692 541.615 401.16 543.036 382.647 548.511L377.255 554.535C374.97 553.927 373.186 553.302 371.448 551.652L371.644 551.064L373.086 551.137C374.787 551.596 376.211 551.532 377.794 550.78L377.7 549.876C374.687 549.488 371.656 549.175 368.703 548.443C368.487 547.986 367.94 547.028 367.879 546.48C367.779 545.582 367.944 545.083 368.457 544.377C369.639 542.75 371.811 542.063 373.667 541.553C382.729 539.061 395.617 537.38 405.236 535.492C424.686 531.673 444.178 527.366 463.731 524.158Z"/>
	<path transform="scale(4 4)" d="M642.807 629.461C645.495 633.665 645.163 641.697 646.31 646.662C649.359 659.86 659.554 681.261 668.548 691.077C668.493 705.966 671.206 721.113 674.651 735.562C676.034 741.364 678.161 747.06 679.012 752.97C679.389 755.581 679.522 757.864 678.333 760.264C677.058 761.235 676.857 761.26 675.25 761.395C674.03 760.563 674.071 760.303 673.578 758.883Q669.69 743.015 666.875 726.923C664.904 715.234 663.825 703.081 659.726 691.888C658.344 688.114 655.476 684.771 653.633 681.161C649.983 674.008 646.908 666.534 643.484 659.267C639.784 651.416 635.409 643.824 633.017 635.44C636.048 632.91 639.262 631.156 642.807 629.461Z"/>
	<path transform="scale(4 4)" d="M374.512 453.049C378.631 452.956 380.342 454.822 383.357 457.338C381.697 457.927 379.768 458.355 378.672 459.81L379.143 460.351C381.722 460.214 383.65 458.424 386.107 458.234C386.886 458.174 386.997 458.487 387.554 458.942C388.234 460.737 387.865 462.891 387.755 464.78L388.186 464.767L390.348 461.718C406.167 471.244 422.506 480.652 438.973 489.008C443.66 491.386 460.676 498.172 463.132 500.096C464.249 500.971 463.834 502.601 463.831 503.875L463.651 510.996Q449.719 506.286 436.419 500.01C428.693 496.298 371.466 464.267 369.304 461.188Q369.178 461.011 369.073 460.82Q368.968 460.63 368.885 460.429Q368.802 460.228 368.742 460.019Q368.682 459.81 368.646 459.595Q368.61 459.381 368.598 459.164Q368.586 458.946 368.599 458.729Q368.612 458.512 368.649 458.298Q368.686 458.084 368.747 457.875C369.474 455.298 372.275 454.008 374.512 453.049Z"/>
	<path transform="scale(4 4)" d="M507.579 548.179C519.485 547.224 533.223 551.123 543.484 557.055C560.482 566.884 571.245 585.603 576.118 604.166C582.524 628.566 577.968 657.517 565.201 679.188C554.345 697.615 539.017 709.421 518.367 714.773C505.348 716.261 493.066 712.695 482.552 704.926C463.377 690.755 451.028 666.579 447.705 643.262C444.373 619.884 447.713 591.85 462.46 572.588C473.339 558.377 490.072 550.441 507.579 548.179ZM510.027 573.237C508.457 566.679 512.905 568.86 510.933 561.198C509.307 565.231 508.378 570.427 506.062 573.99L505.093 574.345C502.936 572.724 503.19 569.631 502.549 567.247C502.004 569.508 501.533 573.416 499.926 574.977C499.046 574.19 497.918 570.212 497.323 570.18C495.801 575.75 501.726 583.336 499.401 586.963C497.311 584.318 496.841 578.312 494.241 576.608C493.475 577.515 493.405 578.622 493.486 579.767C493.768 583.734 498.361 589.119 496.632 592.618L493.511 592.422C493.608 595.209 493.542 598.027 494.327 600.721L494.758 601.058C496.728 599.445 496.404 593.938 498.63 593.409C499.567 594.38 500.436 595.469 500.295 596.92C499.958 600.402 496.285 599.927 496.757 604.539C496.861 605.554 497.119 606.566 496.485 607.46C496.406 607.571 495.763 608.189 495.696 608.255C493.12 610.806 492.397 614.691 491.116 617.98C490.334 619.987 490.201 622.144 490.501 624.254L490.999 624.445C492.158 621.955 492.757 619.32 493.444 616.671L495.399 616.615L495.487 616.305C495.628 618.343 495.093 624.051 496.073 625.51L496.984 625.385C499.025 622.496 498.548 618.503 500.572 615.638L501.466 615.525C502.524 617.581 501.425 621.808 500.73 623.98C500.264 625.434 499.34 626.497 498.358 627.628C498.024 629.371 498.243 630.7 498.559 632.433L499.056 632.836C501.514 630.664 503.088 622.549 504.318 621.599C504.62 621.367 505.078 621.549 505.458 621.524C505.96 621.882 506.373 621.94 506.416 622.623C506.638 626.118 502.553 628.694 504.525 632.422C505.632 633.091 506.315 633.152 507.598 633.194C507.122 631.231 506.675 629.468 507.61 627.622C508.79 627.424 508.728 627.423 509.733 628.078C510.184 629.496 510.465 630.898 510.734 632.361C511.566 633.285 511.519 633.319 512.743 633.471C514.099 632.067 513.63 629.537 514.361 627.705C517.736 628.345 516.174 632.915 518.74 634.392C520.433 632.88 521.485 629.899 522.548 627.874C523.562 625.941 526.04 622.978 526.606 621.109C527.78 617.231 523.231 613.348 524.23 609.488C525.087 608.506 524.965 608.313 526.314 608.056C527.867 610.25 526.59 613.444 528.16 615.571L528.798 615.407C532.659 610.576 525.958 607.809 527.036 602.841C528.121 601.435 528.95 601.023 530.594 600.392C530.283 598.671 530.029 596.872 529.465 595.214C529.101 594.145 529.09 593.645 528.067 593.138C526.763 595.118 526.951 598.618 526.251 600.986L525.659 600.783C524.66 598.585 524.533 596.773 524.413 594.401L521.162 590.922L520.976 582.4C520.325 581.511 519.68 580.611 519.109 579.667C517.855 577.595 517.729 575.927 518.3 573.615C522.498 577.667 521.189 588.518 525.78 592.725C526.442 592.361 526.468 592.534 526.614 591.804C527.53 587.24 518.637 566.139 515.757 562.424L515.137 562.453C514.926 562.877 514.726 563.204 514.671 563.702C514.56 564.707 514.778 565.626 515.351 566.441C516.206 567.656 517.328 568.884 517.766 570.333C518.089 571.401 518.019 571.575 517.522 572.492L516.262 572.793C514.583 571.563 514.654 568.923 513.115 567.302L512.424 567.287C512.36 568.623 512.374 569.959 512.375 571.295C511.571 572.65 511.498 572.644 510.027 573.237Z"/>
	<path fill="#FEFEFE" transform="scale(4 4)" d="M508.346 645.798C508.983 646.235 509.479 646.748 510.031 647.286C510.718 649.038 510.293 650.49 509.96 652.294C508.983 651.819 508.775 651.54 508.117 650.714C507.634 648.974 508.012 647.541 508.346 645.798Z"/>
	<path fill="#FEFEFE" transform="scale(4 4)" d="M523.666 656.345C523.761 656.451 523.87 656.547 523.95 656.665C524.574 657.579 524.87 658.953 524.656 660.048C524.345 661.645 523.544 662.203 522.322 663.147L521.653 662.211C521.772 660.039 522.758 658.281 523.666 656.345Z"/>
	<path fill="#FEFEFE" transform="scale(4 4)" d="M498.141 652.761C498.72 653.179 498.745 653.128 499.181 653.741C500.468 655.55 499.813 657.79 499.508 659.822C498.854 659.46 498.333 659.163 497.934 658.494C496.891 656.744 497.666 654.563 498.141 652.761Z"/>
	<path fill="#FEFEFE" transform="scale(4 4)" d="M520.35 635.105C521.415 635.488 521.892 635.853 522.665 636.677C523.384 638.378 523 640.184 522.814 641.97C522.404 641.763 522.326 641.756 521.952 641.396C520.338 639.846 520.482 637.191 520.35 635.105Z"/>
	<path fill="#FEFEFE" transform="scale(4 4)" d="M512.093 640.249C512.283 640.392 512.49 640.513 512.662 640.676C514.436 642.365 514.132 645.015 514.032 647.218C512.94 646.615 512.374 646.204 511.656 645.178C511.163 643.437 511.682 641.95 512.093 640.249Z"/>
	<path fill="#FEFEFE" transform="scale(4 4)" d="M504.824 639.605C505.669 639.952 505.941 640.149 506.59 640.745C507.396 642.604 506.966 644.444 506.727 646.389C505.751 645.999 505.55 645.782 504.862 645.034C504.206 643.182 504.575 641.516 504.824 639.605Z"/>
	<path fill="#FEFEFE" transform="scale(4 4)" d="M505.594 652.273C506.154 652.758 506.457 653.1 506.668 653.846C507.205 655.745 506.315 657.504 505.538 659.183C504.671 658.221 503.952 657.345 503.868 655.985C503.774 654.461 504.703 653.374 505.594 652.273Z"/>
	<path fill="#FEFEFE" transform="scale(4 4)" d="M485.75 599.276C486.095 599.517 486.344 599.652 486.589 600.037C488.026 602.3 487.161 605.312 486.609 607.687L485.91 607.633C484.448 605.494 485.429 601.712 485.75 599.276Z"/>
	<path fill="#FEFEFE" transform="scale(4 4)" d="M537.012 616.183C537.576 616.583 537.894 616.983 538.329 617.512C538.955 619.854 538.509 622.003 538.19 624.36L537.028 623.43C535.961 620.886 536.5 618.81 537.012 616.183Z"/>
	<path fill="#FEFEFE" transform="scale(4 4)" d="M513.692 633.515C514.698 633.817 515.164 634.102 515.92 634.831C516.857 636.695 516.488 638.766 516.38 640.792C515.948 640.597 515.75 640.541 515.375 640.219C513.624 638.72 513.816 635.634 513.692 633.515Z"/>
	<path fill="#FEFEFE" transform="scale(4 4)" d="M524.461 629.624C525.24 630 525.543 630.274 526.141 630.872C526.935 632.966 526.55 635.138 526.387 637.328C525.88 636.934 525.367 636.497 524.959 635.999C523.415 634.112 524.106 631.812 524.461 629.624Z"/>
	<path fill="#FEFEFE" transform="scale(4 4)" d="M534.001 608.293C534.213 608.463 534.454 608.603 534.638 608.803C536.314 610.618 535.465 614.591 535.171 616.813L533.973 615.747C532.985 613.053 533.373 611.041 534.001 608.293Z"/>
	<path fill="#FEFEFE" transform="scale(4 4)" d="M527.812 623.169C528.303 623.541 528.81 623.962 529.115 624.51C530.177 626.418 529.816 629.142 529.003 631.051C528.506 630.523 527.811 629.875 527.486 629.206C526.642 627.471 527.449 624.977 527.812 623.169Z"/>
	<path fill="#FEFEFE" transform="scale(4 4)" d="M535.547 586.27C536.611 586.716 537.072 587.238 537.812 588.109C538.488 590.058 538.066 591.852 537.77 593.832C537.237 593.706 537.17 593.782 536.815 593.394C535.344 591.788 535.595 588.345 535.547 586.27Z"/>
	<path fill="#FEFEFE" transform="scale(4 4)" d="M502.606 645.816C502.992 646.207 503.085 646.251 503.363 646.808C504.376 648.835 503.451 651.745 502.62 653.644C501.964 652.798 501.384 652.073 501.136 651.01C500.659 648.963 501.566 647.481 502.606 645.816Z"/>
	<path fill="#FEFEFE" transform="scale(4 4)" d="M489.137 576.753L490.076 577.528C491.15 580.09 490.365 582.771 489.806 585.365L488.689 584.652C487.96 581.96 488.506 579.415 489.137 576.753Z"/>
	<path fill="#FEFEFE" transform="scale(4 4)" d="M482.684 591.705L483.848 592.557C485.047 595.233 484.325 597.463 483.682 600.181L483.06 599.828C481.509 597.675 482.377 594.17 482.684 591.705Z"/>
	<path fill="#FEFEFE" transform="scale(4 4)" d="M533.573 592.858C533.932 593.16 534.004 593.183 534.294 593.642C535.764 595.969 535.307 599.182 534.792 601.699C534.324 601.446 533.983 601.064 533.597 600.702C532.66 597.931 532.852 595.661 533.573 592.858Z"/>
	<path fill="#FEFEFE" transform="scale(4 4)" d="M488.345 607.761C489.031 608.39 489.618 608.897 489.915 609.82C490.629 612.039 489.413 614.488 488.616 616.526L488.118 616.145C487.003 613.489 487.789 610.478 488.345 607.761Z"/>
	<path fill="#FEFEFE" transform="scale(4 4)" d="M530.563 616.139C531.176 616.416 531.496 616.468 531.929 616.935C533.433 618.56 532.872 621.842 532.765 623.881C531.524 623.759 531.674 623.64 530.832 622.826C530.107 620.68 530.449 618.37 530.563 616.139Z"/>
	<path fill="#FEFEFE" transform="scale(4 4)" d="M487.742 640.828L488.382 641.561C489.254 644.735 489.334 647.488 488.542 650.688C488.197 650.36 488.16 650.358 487.864 649.886C486.165 647.18 487.176 643.716 487.742 640.828Z"/>
	<path fill="#FEFEFE" transform="scale(4 4)" d="M498.027 639.228C498.919 639.598 499.44 640.037 500.142 640.695C500.909 642.591 500.448 644.433 500.17 646.393C499.083 646.51 499.208 646.42 498.331 645.912C497.508 643.76 497.885 641.484 498.027 639.228Z"/>
	<path fill="#FEFEFE" transform="scale(4 4)" d="M536.561 600.661C537.214 600.93 537.658 601.164 538.097 601.754C539.507 603.649 538.669 606.544 538.33 608.69C537.412 608.754 537.456 608.522 536.79 607.949C536.14 605.593 536.455 603.082 536.561 600.661Z"/>
	<path fill="#FEFEFE" transform="scale(4 4)" d="M492.716 624.767C493.668 625.196 494.015 625.666 494.622 626.501C495.189 628.668 494.638 630.669 494.244 632.826C493.495 632.476 493.356 632.563 492.953 631.975C491.63 630.048 492.4 626.939 492.716 624.767Z"/>
	<path fill="#FEFEFE" transform="scale(4 4)" d="M507.598 633.194C508.99 633.563 509.032 633.615 509.938 634.74C510.442 636.744 510.197 638.609 510.014 640.633C508.752 639.909 507.883 639.567 507.549 638.039C507.236 636.607 507.516 634.657 507.598 633.194Z"/>
	<path fill="#FEFEFE" transform="scale(4 4)" d="M488.07 591.639C489.316 592.284 489.489 592.485 490.26 593.665C490.627 595.835 490.002 597.641 489.443 599.717L488.571 599.516C487.384 597.056 487.751 594.261 488.07 591.639Z"/>
	<path fill="#FEFEFE" transform="scale(4 4)" d="M530.594 600.392C531.948 601.454 532.856 602.14 533.064 603.987C533.243 605.566 532.954 607.209 532.74 608.772C531.528 608.121 530.962 607.951 530.542 606.522C530.011 604.715 530.442 602.273 530.594 600.392Z"/>
	<path fill="#FEFEFE" transform="scale(4 4)" d="M495.616 632.171C496.357 632.582 496.44 632.509 496.902 633.189C498.233 635.148 497.654 638.138 497.45 640.37C496.682 639.913 495.953 639.524 495.456 638.744C494.233 636.827 495.162 634.219 495.616 632.171Z"/>
	<path fill="#FEFEFE" transform="scale(4 4)" d="M491.201 584.934C492.001 585.175 492.352 585.083 492.819 585.853C493.912 587.654 493.552 590.4 493.511 592.422C491.941 591.993 491.838 592.059 490.893 590.76C490.519 588.77 490.903 586.906 491.201 584.934Z"/>
	<path fill="#FEFEFE" transform="scale(4 4)" d="M501.893 632.403C502.502 632.812 502.98 633.294 503.509 633.799C504.395 636.142 504.171 638.116 503.371 640.453L501.851 639.39C500.652 636.859 501.274 635.002 501.893 632.403Z"/>
	<path fill="#FEFEFE" transform="scale(4 4)" d="M491.571 599.336C492.088 599.88 492.254 600.012 492.695 600.691C494.163 602.953 493.096 606.42 492.492 608.749C492.08 608.449 491.689 608.203 491.376 607.779C489.71 605.516 490.967 601.789 491.571 599.336Z"/>
	<path fill="#FEFEFE" transform="scale(4 4)" d="M527.035 566.886C527.225 567.053 527.435 567.201 527.606 567.388C530.983 571.07 534.948 581.264 534.877 586.285L533.919 586.134C530.744 582.791 527.815 571.68 527.035 566.886Z"/>
	<path fill="#FEFEFE" transform="scale(4 4)" d="M519.737 562.29C519.889 562.419 520.053 562.536 520.193 562.678C524.769 567.293 529.729 580.789 529.433 587.287C528.933 586.836 528.77 586.717 528.356 586.261C527.115 584.893 520.305 566.732 519.792 564.473C519.626 563.746 519.69 563.024 519.737 562.29Z"/>
	<path fill="#FEFEFE" transform="scale(4 4)" d="M510.027 573.237C511.498 572.644 511.571 572.65 512.375 571.295C512.374 569.959 512.36 568.623 512.424 567.287L513.115 567.302C514.654 568.923 514.583 571.563 516.262 572.793L517.522 572.492C518.019 571.575 518.089 571.401 517.766 570.333C517.328 568.884 516.206 567.656 515.351 566.441C514.778 565.626 514.56 564.707 514.671 563.702C514.726 563.204 514.926 562.877 515.137 562.453L515.757 562.424C518.637 566.139 527.53 587.24 526.614 591.804C526.468 592.534 526.442 592.361 525.78 592.725C521.189 588.518 522.498 577.667 518.3 573.615C517.729 575.927 517.855 577.595 519.109 579.667C519.68 580.611 520.325 581.511 520.976 582.4L521.162 590.922L524.413 594.401C524.533 596.773 524.66 598.585 525.659 600.783L526.251 600.986C526.951 598.618 526.763 595.118 528.067 593.138C529.09 593.645 529.101 594.145 529.465 595.214C530.029 596.872 530.283 598.671 530.594 600.392C528.95 601.023 528.121 601.435 527.036 602.841C525.958 607.809 532.659 610.576 528.798 615.407L528.16 615.571C526.59 613.444 527.867 610.25 526.314 608.056C524.965 608.313 525.087 608.506 524.23 609.488C523.231 613.348 527.78 617.231 526.606 621.109C526.04 622.978 523.562 625.941 522.548 627.874C521.485 629.899 520.433 632.88 518.74 634.392C516.174 632.915 517.736 628.345 514.361 627.705C513.63 629.537 514.099 632.067 512.743 633.471C511.519 633.319 511.566 633.285 510.734 632.361C510.465 630.898 510.184 629.496 509.733 628.078C508.728 627.423 508.79 627.424 507.61 627.622C506.675 629.468 507.122 631.231 507.598 633.194C506.315 633.152 505.632 633.091 504.525 632.422C502.553 628.694 506.638 626.118 506.416 622.623C506.373 621.94 505.96 621.882 505.458 621.524C505.078 621.549 504.62 621.367 504.318 621.599C503.088 622.549 501.514 630.664 499.056 632.836L498.559 632.433C498.243 630.7 498.024 629.371 498.358 627.628C499.34 626.497 500.264 625.434 500.73 623.98C501.425 621.808 502.524 617.581 501.466 615.525L500.572 615.638C498.548 618.503 499.025 622.496 496.984 625.385L496.073 625.51C495.093 624.051 495.628 618.343 495.487 616.305L495.399 616.615L493.444 616.671C492.757 619.32 492.158 621.955 490.999 624.445L490.501 624.254C490.201 622.144 490.334 619.987 491.116 617.98C492.397 614.691 493.12 610.806 495.696 608.255C495.763 608.189 496.406 607.571 496.485 607.46C497.119 606.566 496.861 605.554 496.757 604.539C496.285 599.927 499.958 600.402 500.295 596.92C500.436 595.469 499.567 594.38 498.63 593.409C496.404 593.938 496.728 599.445 494.758 601.058L494.327 600.721C493.542 598.027 493.608 595.209 493.511 592.422L496.632 592.618C498.361 589.119 493.768 583.734 493.486 579.767C493.405 578.622 493.475 577.515 494.241 576.608C496.841 578.312 497.311 584.318 499.401 586.963C501.726 583.336 495.801 575.75 497.323 570.18C497.918 570.212 499.046 574.19 499.926 574.977C501.533 573.416 502.004 569.508 502.549 567.247C503.19 569.631 502.936 572.724 505.093 574.345L506.062 573.99C508.378 570.427 509.307 565.231 510.933 561.198C512.905 568.86 508.457 566.679 510.027 573.237ZM521.882 600.165C521.555 602.222 520.743 605.262 522.044 607.085C522.433 607.63 523.222 607.848 523.806 608.13C523.982 605.87 524.353 603.684 523.584 601.505C522.987 600.885 522.66 600.571 521.882 600.165ZM501.495 600.26C500.851 602.341 499.863 604.753 500.798 606.898C501.122 607.64 501.563 608.022 502.183 608.493C502.823 606.358 503.662 603.175 502.317 601.103C501.989 600.598 501.909 600.581 501.495 600.26ZM506.775 615.608C506.555 617.322 506.168 618.901 506.87 620.546C507.522 621.176 507.873 621.479 508.708 621.881C508.886 620.149 509.293 618.418 508.514 616.794C507.92 616.305 507.476 615.937 506.775 615.608Z"/>
	<path transform="scale(4 4)" d="M506.775 615.608C507.476 615.937 507.92 616.305 508.514 616.794C509.293 618.418 508.886 620.149 508.708 621.881C507.873 621.479 507.522 621.176 506.87 620.546C506.168 618.901 506.555 617.322 506.775 615.608Z"/>
	<path transform="scale(4 4)" d="M510.724 580.651C511.694 581.049 512.229 581.575 512.968 582.306C513.575 583.956 513.302 585.086 512.983 586.746C512.065 586.261 511.597 585.783 510.873 585.055C510.251 583.506 510.512 582.249 510.724 580.651Z"/>
	<path transform="scale(4 4)" d="M516.506 581.174C517.69 581.526 518.394 581.805 519.334 582.615C519.815 584.124 519.129 585.48 518.647 586.914C518.067 586.787 517.727 586.442 517.258 586.092C516.476 584.374 516.486 583.042 516.506 581.174Z"/>
	<path transform="scale(4 4)" d="M504.003 608.783C504.599 609.255 504.96 609.618 505.258 610.349C506.035 612.249 505.32 613.964 504.638 615.751C504.086 615.332 503.667 614.948 503.336 614.317C502.34 612.418 503.262 610.578 504.003 608.783Z"/>
	<path transform="scale(4 4)" d="M510.905 621.121C511.668 621.612 512.206 621.793 512.651 622.622C513.619 624.426 512.926 626.13 512.392 627.952C511.718 627.38 511.189 626.8 510.607 626.138C509.966 624.39 510.508 622.864 510.905 621.121Z"/>
	<path transform="scale(4 4)" d="M514.092 615.115C514.952 615.415 515.355 615.709 516.066 616.254C516.907 618.121 516.496 620.044 516.298 622.019C515.384 621.732 515.144 621.408 514.483 620.744C513.704 618.901 513.975 617.062 514.092 615.115Z"/>
	<path transform="scale(4 4)" d="M504.407 580.204C505.062 580.585 505.613 580.918 506.062 581.554C507.254 583.243 506.448 585.312 505.991 587.123C505.174 586.452 504.579 585.773 503.931 584.94C503.417 583.213 503.941 581.87 504.407 580.204Z"/>
	<path transform="scale(4 4)" d="M501.975 574.179C502.691 574.815 503.202 575.055 503.492 576.012C504.113 578.068 503.192 579.56 502.208 581.294C501.681 580.685 501.212 580.128 500.941 579.351C500.271 577.431 501.117 575.848 501.975 574.179Z"/>
	<path transform="scale(4 4)" d="M501.495 600.26C501.909 600.581 501.989 600.598 502.317 601.103C503.662 603.175 502.823 606.358 502.183 608.493C501.563 608.022 501.122 607.64 500.798 606.898C499.863 604.753 500.851 602.341 501.495 600.26Z"/>
	<path transform="scale(4 4)" d="M501.16 586.597C502.312 587.101 502.491 587.245 503.246 588.251C503.59 590.109 502.935 591.568 502.345 593.318L501.244 593.514L500.621 593.003C500.12 590.892 500.774 588.696 501.16 586.597Z"/>
	<path transform="scale(4 4)" d="M521.882 600.165C522.66 600.571 522.987 600.885 523.584 601.505C524.353 603.684 523.982 605.87 523.806 608.13C523.222 607.848 522.433 607.63 522.044 607.085C520.743 605.262 521.555 602.222 521.882 600.165Z"/>
	<path transform="scale(4 4)" d="M521.119 615.096C521.87 615.367 522.582 615.444 523.094 616.095C524.425 617.787 523.608 620.339 523.259 622.297L522.262 622.48L521.482 621.795C520.73 619.583 521.006 617.392 521.119 615.096Z"/>
	<path transform="scale(4 4)" d="M517.897 621.646C518.586 621.922 519.092 622.151 519.566 622.761C520.97 624.564 520.461 627.254 520.305 629.382C519.452 628.945 518.578 628.585 518.039 627.744C516.916 625.99 517.579 623.535 517.897 621.646Z"/>
	<path transform="scale(4 4)" d="M513.021 573.15C513.592 573.43 514.052 573.835 514.553 574.222C515.845 576.685 515.463 578.593 514.925 581.245L513.566 580.419C511.893 577.961 512.525 575.896 513.021 573.15Z"/>
	<path transform="scale(4 4)" d="M510.027 573.237C510.546 574.976 510.207 577.337 509.572 579.032C509.089 580.321 508.727 580.926 507.478 581.481C506.838 579.611 506.375 577.563 507.288 575.688C507.903 574.423 508.687 573.676 510.027 573.237Z"/>
	<path transform="scale(4 4)" d="M498.178 607.224L499.271 608.331C500.188 611.521 499.37 613.652 498.309 616.689C497.196 615.824 496.555 614.561 496.382 613.173C496.091 610.843 496.85 609.077 498.178 607.224Z"/>
	<path fill="#FEFEFE" transform="scale(4 4)" d="M258.854 162.752C298.817 177.919 351.535 178.342 392.47 166.815C432.766 155.467 471.079 132.522 497.427 99.6618C502.275 93.6149 508.418 86.3168 510.66 78.8746C513.299 70.1096 509.305 47.0479 512.204 41.8657C512.95 48.9625 512.861 56.2838 512.783 63.4174C512.731 68.1786 512.033 73.4661 513.146 78.0952C514.025 81.7472 516.069 85.4374 518.068 88.588C545.531 131.871 596.143 160.275 645.337 170.978C677.21 177.912 709.941 176.863 741.651 169.645C747.97 168.207 755.468 166.829 761.259 163.924C767.995 160.546 771.745 153.845 777.91 150.1C778.16 149.948 778.415 149.805 778.667 149.657C775.197 155.15 769.716 159.671 764.57 163.532C764.288 179.395 764.009 195.237 765.963 211.013C770.717 249.398 789.383 285.322 815.042 313.89Q816.953 316.039 818.924 318.134Q820.894 320.229 822.922 322.268Q824.951 324.307 827.035 326.288Q829.12 328.27 831.259 330.192Q833.398 332.115 835.59 333.977Q837.782 335.838 840.025 337.638Q842.268 339.438 844.561 341.174Q846.854 342.911 849.194 344.583Q851.534 346.254 853.921 347.86Q856.307 349.465 858.737 351.003Q861.167 352.542 863.639 354.011Q866.111 355.481 868.623 356.881Q871.136 358.281 873.686 359.61Q876.237 360.939 878.823 362.197Q881.41 363.454 884.03 364.639Q886.651 365.823 889.304 366.934C897.282 370.252 905.366 373.406 914.088 373.958C919.8 374.319 926.041 373.19 931.548 371.656C934.059 370.956 938.698 368.494 941.093 368.626C935.196 372.931 924.561 374.004 917.537 376.859C917.35 376.934 917.165 377.014 916.979 377.092C912.62 382.747 908.962 389.034 905.264 395.13C891.693 417.501 880.593 440.712 874.409 466.24C863.134 512.78 870.772 561.643 891.928 604.267C899.01 618.535 907.838 631.978 916.109 645.579C924.993 649.844 935.045 651.157 944.049 655.302C935.272 653.7 926.709 649.884 918.004 648.584C909.296 647.283 881.933 660.695 873.166 665.211C824.628 690.215 790.271 730.851 773.698 782.936C768.865 798.122 760.243 840.845 764.258 854.712C765.934 860.498 771.004 865.067 773.721 870.443L774.057 871.119C769.433 866.9 766.055 861.537 761.818 856.946C726.378 849.7 700.151 851.792 664.321 854.568C666.71 851.012 669.099 847.546 671.831 844.237C697.068 840.235 725.522 840.028 750.513 845.747C745.203 840.381 740.19 835.037 735.511 829.104C725.051 815.842 715.925 801.651 703.91 789.672C698.775 789.721 691.657 790.52 686.899 788.454L687.081 787.909C692.215 786.178 697.228 786.583 702.538 786.752C698.936 782.164 694.356 776.943 692.107 771.545C691.414 769.884 690.973 768.405 691.699 766.717L692.833 766.724C698.528 769.96 702.521 777.678 706.076 783.068C705.839 772.726 705.928 762.308 706.862 751.999Q707.116 749.1 707.47 746.211Q707.825 743.323 708.281 740.448Q708.737 737.574 709.293 734.717Q709.849 731.86 710.505 729.025Q711.161 726.189 711.915 723.378Q712.67 720.567 713.522 717.785Q714.375 715.002 715.324 712.251Q716.273 709.5 717.318 706.783Q718.364 704.067 719.503 701.389Q720.643 698.711 721.875 696.074Q723.108 693.438 724.432 690.846Q725.756 688.254 727.169 685.711Q728.583 683.167 730.086 680.674Q731.588 678.181 733.176 675.743Q734.764 673.304 736.437 670.922Q738.11 668.541 739.865 666.219C744.782 659.608 749.789 653.257 756.139 647.945C753.785 651.866 750.547 655.306 747.718 658.896Q742.435 665.613 737.934 672.878C716.505 707.433 708.321 747.618 711.085 787.988C715.436 794.918 721.521 801.364 726.726 807.695Q740.871 824.59 754.461 841.935Q754.446 836.969 754.668 832.008Q754.89 827.046 755.349 822.101Q755.807 817.156 756.501 812.239Q757.194 807.322 758.122 802.443Q759.049 797.564 760.208 792.735Q761.367 787.906 762.755 783.138Q764.143 778.37 765.757 773.673Q767.371 768.976 769.207 764.362Q770.004 762.317 770.845 760.29Q771.686 758.263 772.57 756.255Q773.454 754.246 774.381 752.257Q775.307 750.268 776.277 748.299Q777.246 746.33 778.257 744.382Q779.268 742.435 780.321 740.509Q781.374 738.584 782.468 736.681Q783.561 734.779 784.696 732.9Q785.83 731.021 787.004 729.167Q788.178 727.313 789.392 725.485Q790.606 723.657 791.859 721.855Q793.111 720.053 794.402 718.278Q795.693 716.504 797.022 714.757Q798.351 713.011 799.716 711.293Q801.082 709.575 802.485 707.887Q803.887 706.199 805.325 704.542Q806.763 702.884 808.237 701.258Q809.71 699.631 811.218 698.037Q812.726 696.442 814.267 694.881Q815.809 693.319 817.384 691.79Q818.959 690.262 820.566 688.768Q822.173 687.273 823.812 685.814Q825.451 684.354 827.12 682.931Q828.79 681.506 830.49 680.119Q832.19 678.731 833.919 677.379Q835.648 676.028 837.406 674.714Q839.164 673.401 840.949 672.125Q842.735 670.849 844.547 669.612Q846.36 668.374 848.199 667.176Q850.037 665.978 851.901 664.82Q853.765 663.661 855.653 662.543Q857.541 661.425 859.453 660.347C871.037 653.911 883.559 649.131 895.706 643.879C886.549 640.31 876.852 637.814 867.44 634.991L827.212 622.629C816.304 626.114 805.727 630.659 794.869 634.336C802.626 628.327 811.249 624.492 820.107 620.414C814.326 617.858 808.091 616.062 802.082 614.137C786.858 609.262 771.864 604.492 758.273 595.826C779.334 600.697 799.975 608.469 820.712 614.655C810.41 599.172 801.829 582.828 796.199 565.063C783.852 526.099 785.231 481.608 801.777 444.076Q806.903 432.69 813.214 421.916C815.698 417.661 818.542 413.543 820.787 409.161L820.978 408.782Q802.138 415.798 782.897 421.622C774.09 424.347 764.988 426.785 756.445 430.25C742.192 436.029 732.559 453.577 726.867 466.984C716.15 492.227 714.342 522.614 722.825 548.768C725.824 558.015 730.408 566.551 734.062 575.533C721.869 559.171 715.699 541.068 714.3 520.748C712.657 496.897 717.831 470.426 731.216 450.288C735.427 443.952 740.646 438.293 745.641 432.576C729.406 437.942 712.982 443.446 696.359 447.459C707.581 442.842 719.206 439.061 730.637 434.989Q756.414 425.705 782.328 416.815C795.295 412.455 808.342 408.578 821.035 403.427C801.339 399.804 781.56 391.766 766.638 378.143C774.893 381.515 782.7 385.949 790.973 389.311Q802.106 393.813 813.714 396.891C833.643 402.09 842.143 397.523 860.827 391.213C872.099 387.406 883.562 384.185 894.9 380.583C888.357 377.413 881.426 375.107 874.88 371.878Q870.593 369.752 866.402 367.443Q862.211 365.135 858.123 362.648Q854.034 360.161 850.057 357.501Q846.079 354.841 842.22 352.013Q838.36 349.185 834.626 346.193Q830.892 343.201 827.289 340.052Q823.687 336.902 820.223 333.601Q816.76 330.299 813.441 326.852C774.114 286.606 753.19 237.821 753.885 181.458C745.012 194.717 733.446 208.117 723.568 220.905C719.851 225.718 715.294 230.759 712.358 236.08C709.592 241.092 709.926 248.839 709.53 254.544C707.783 279.706 710.084 303.395 716.692 327.742C718.929 335.985 721.887 344.014 724.064 352.262C707.333 322.839 704.764 280.242 704.501 247.081C699.904 252.494 695.924 258.621 691.743 264.371C680.276 280.141 669.141 296.499 656.231 311.116C665.613 285.753 686.4 263.486 700.946 240.777C684.744 243.556 657.084 249.397 641.204 247.093C654.512 244.553 694.604 239.617 704.347 233.921C711.695 229.625 741.791 186.723 748.03 178.286C720.849 188.143 681.463 187.966 653.198 183.342C604.039 175.301 544.459 143.088 515.122 102.296C515.019 126.045 514.656 149.818 515.466 173.556C531.363 192.786 549.216 211.771 571.012 224.361C579.841 229.461 589.371 233.2 598.204 238.316C562.265 229.118 539.474 211.212 515.131 184.371L515.067 248.589C535.633 276.286 561.03 292.012 592.892 303.782C599.671 306.286 612.414 309.337 618.051 312.454C618.324 312.604 618.592 312.763 618.862 312.918C589.876 308.407 559.795 297.916 536.426 279.792C528.658 273.768 521.887 266.82 515.053 259.791L515.361 327.154C536.95 345.778 556.084 357.413 585.224 360.321C592.11 361.008 598.981 360.903 605.881 361.297C602.429 361.81 598.995 362.227 595.508 362.414C565.258 364.032 537.593 355.281 515.032 334.911C514.439 354.332 514.694 373.709 514.94 393.132C524.42 402.449 535.812 407.759 546.57 415.167C534.805 410.427 525.063 403.59 514.585 396.659Q514.678 425.141 513.684 453.605C519.866 454.7 525.924 456.569 531.899 458.467C535.342 452.708 537.773 445.713 537.118 438.9C536.734 434.893 532.593 426.929 534.409 423.633C535.217 423.348 535.316 423.154 536.183 423.435C539.409 424.48 543.51 429.986 544.898 432.965C548.727 441.182 549.748 450.219 546.532 458.808C544.005 465.559 539.829 469.347 533.456 472.257C536.714 465.338 542.427 460.496 543.918 452.587C545.442 444.507 542.697 436.777 538.262 430.143C540.68 439.974 540.897 449.523 535.549 458.509C534.704 459.928 533.108 462.81 531.527 463.193C530.69 462.432 530.044 461.623 529.345 460.739C515.248 455.657 503.747 456.703 490.321 462.989C484.288 452.562 483.778 443.191 484.54 431.404C471.659 457.099 489.987 464.379 489.697 471.299L488.782 471.765C488.146 471.67 487.654 471.516 487.117 471.148C481.752 467.466 477.243 459.201 476.234 452.906C474.98 445.08 476.728 436.093 481.455 429.649C482.834 427.77 484.881 424.929 487.286 424.562C487.547 424.781 487.882 424.935 488.071 425.22C488.527 425.906 486.619 438.77 486.633 440.904C486.673 447.142 488.591 452.73 490.996 458.408C497.272 455.843 503.849 454.421 510.516 453.34C511.001 434.503 511.233 415.388 510.056 396.58C500.111 403.359 490.096 410.457 478.547 414.21C486.858 409.372 494.861 404.48 502.674 398.864C505.043 397.09 507.312 395.158 509.607 393.287L509.503 333.858C502.718 340.543 495.45 346.162 487.018 350.635C465.919 361.825 437.929 366.838 414.763 359.779C422.68 360.37 430.658 360.963 438.594 360.427C464.909 358.651 492.076 345.614 509.446 325.731L509.453 258.655Q506.3 262.548 502.839 266.17C481.881 287.822 454.555 301.295 425.469 308.127C417.141 310.083 408.682 311.689 400.106 311.841C405.672 310.449 411.303 309.342 416.896 308.066C450.236 300.459 491.143 276.767 509.477 247.512Q509.416 215.713 508.894 183.918C488.666 210.409 463.861 227.063 431.893 236.386C462.904 219.118 488.743 202.985 508.949 172.871C510.201 149.244 509.315 125.288 508.941 101.634C497.515 120.176 478.237 135.497 460.067 147.247Q458.059 148.57 456.025 149.851Q453.99 151.132 451.93 152.371Q449.869 153.609 447.783 154.805Q445.697 156 443.586 157.152Q441.476 158.305 439.342 159.413Q437.209 160.521 435.052 161.584Q432.896 162.648 430.718 163.666Q428.54 164.685 426.342 165.658Q424.143 166.631 421.925 167.558Q419.707 168.486 417.47 169.367Q415.233 170.248 412.978 171.083Q410.723 171.917 408.451 172.705Q406.18 173.492 403.892 174.233Q401.605 174.973 399.302 175.665Q397 176.358 394.684 177.003Q392.367 177.648 390.038 178.244Q387.709 178.841 385.368 179.389Q383.027 179.937 380.675 180.437Q378.323 180.936 375.962 181.387Q373.6 181.837 371.229 182.239Q368.859 182.64 366.481 182.992Q364.102 183.345 361.717 183.647Q359.332 183.95 356.941 184.204Q354.55 184.457 352.154 184.66Q349.759 184.864 347.359 185.018Q344.96 185.172 342.558 185.276Q340.156 185.38 337.752 185.434Q335.348 185.488 332.944 185.493Q330.54 185.497 328.136 185.452Q325.732 185.406 323.33 185.311Q320.927 185.215 318.527 185.07Q316.127 184.925 313.731 184.73C300.854 183.646 288.453 181.266 275.829 178.567C282.98 189.409 291.348 199.855 299.286 210.147C304.624 217.068 310.25 225.953 317.027 231.413C328.48 240.64 365.114 243.216 379.961 245.132C361.189 248.344 341.625 244.913 323.129 241.398C339.05 264.06 355.629 287.191 366.736 312.679C357.114 302.311 349.662 290.244 341.703 278.616C333.846 267.136 325.705 255.856 318.052 244.236C317.94 279.866 317.048 320.631 297.626 351.919C303.139 337.104 308.75 322.18 311.326 306.52C313.668 292.289 314.044 277.848 313.68 263.455C313.484 255.689 314.585 246.198 312.257 238.763C309.657 230.458 289.84 208.258 283.107 199.775Q276.578 191.526 270.54 182.912C270.087 216.683 261.373 252.232 245.317 281.97C226.443 316.925 198.108 343.676 164.109 363.741C152.496 370.596 141.101 376.612 128.118 380.498C138.193 383.879 148.505 386.58 158.648 389.755C168.9 392.962 182.712 399.135 193.217 399.657C210.508 400.517 250.524 382.368 266.973 375.081C248.56 389.961 227.242 398.831 204.254 403.943C212.329 407.254 221.419 409.34 229.764 411.979C258.423 421.045 292.705 430.854 318.518 445.942C307.968 443.101 297.524 439.611 287.105 436.313Q288.511 438.142 289.844 440.024Q291.178 441.907 292.436 443.84Q293.695 445.773 294.878 447.754Q296.06 449.735 297.164 451.76Q298.268 453.786 299.292 455.853Q300.316 457.92 301.259 460.026Q302.201 462.131 303.061 464.272Q303.92 466.413 304.696 468.585Q305.471 470.758 306.161 472.959Q306.851 475.161 307.454 477.387Q308.058 479.614 308.574 481.862Q309.09 484.11 309.517 486.377Q309.945 488.644 310.284 490.926Q310.623 493.208 310.872 495.501Q311.122 497.795 311.282 500.096Q311.441 502.397 311.511 504.703C312.315 531.361 304.439 561.674 285.819 581.552C287.988 576.369 291.461 571.614 294.087 566.628C299.345 556.645 302.998 545.576 305.337 534.557C310.564 509.935 308.658 483.307 297.622 460.488C293.282 451.514 287.64 443.206 282.218 434.862C270.042 431.947 258.279 427.731 246.422 423.759L200.612 408.413C216.659 431.133 229.953 454.485 235.845 481.977C243.675 518.511 236.675 556.273 219.168 588.966C214.215 598.215 208.27 606.846 202.559 615.632C220.991 610.63 243.789 602.713 262.274 600.118C243.497 607.922 224.684 614.966 205.188 620.771C212.953 624.59 220.722 626.555 227.381 632.435C223.314 631.765 219.452 630.984 215.556 629.62C210.514 627.855 205.292 625.13 199.975 624.447C191.935 623.413 140.867 640.071 129.742 643.398C151.436 650.266 183.193 671.363 200.507 686.815C235.099 717.69 258.004 756.798 265.772 802.64C268.006 815.828 268.791 829.059 269.539 842.391C275.282 834.372 281.688 826.852 287.813 819.126L313.59 786.069C314.28 781.181 314.428 776.161 314.503 771.227C315.048 735.403 305.697 697.507 282.752 669.267C276.492 661.561 268.947 655.561 262.087 648.507C267.984 651.93 273.049 656.517 277.853 661.317C299.323 682.771 313.058 713.17 317.464 743.091C319.188 754.799 319.472 766.636 319.485 778.449C324.153 772.957 328.304 766.438 333.497 761.482L334.786 768.939C330.939 774.19 326.571 779.161 322.416 784.174C325.597 783.305 328.633 781.978 331.69 780.753L331.813 787.001C327.673 787.668 322.703 788.378 319.2 790.804C311.693 796.002 306.245 806.021 300.682 813.201Q288.364 828.853 276.206 844.629C301.846 839.713 330.176 840.39 355.97 843.662Q358.087 848.601 360.117 853.577Q346.677 852.295 333.177 852.077Q319.678 851.86 306.203 852.708C293.496 853.384 272.469 854.267 261.081 859.852C256.878 861.913 252.745 865.458 249.678 868.964C249.268 869.432 249.519 869.278 249.12 869.459L250.205 868.787L249.556 868.222C252.43 864.995 255.522 861.954 258.549 858.871C262.208 827.532 255.517 787.107 241.914 758.617Q241.037 756.779 240.125 754.959Q239.212 753.139 238.264 751.338Q237.316 749.536 236.332 747.753Q235.349 745.971 234.331 744.207Q233.312 742.444 232.26 740.702Q231.207 738.959 230.12 737.237Q229.033 735.515 227.913 733.815Q226.793 732.115 225.639 730.438Q224.486 728.76 223.299 727.105Q222.113 725.45 220.895 723.819Q219.676 722.188 218.426 720.581Q217.176 718.974 215.894 717.393Q214.612 715.811 213.3 714.254Q211.987 712.698 210.644 711.167Q209.302 709.637 207.929 708.133Q206.556 706.629 205.154 705.153Q203.753 703.676 202.322 702.227Q200.891 700.779 199.433 699.359Q197.974 697.938 196.487 696.547Q195.001 695.156 193.487 693.794Q191.974 692.432 190.434 691.1Q188.894 689.768 187.328 688.467Q185.762 687.165 184.171 685.895Q182.58 684.625 180.965 683.386Q179.349 682.147 177.709 680.94Q176.069 679.733 174.406 678.559Q172.743 677.384 171.057 676.243Q169.371 675.101 167.663 673.993Q165.956 672.885 164.226 671.81Q162.497 670.736 160.746 669.695Q158.996 668.655 157.226 667.649Q155.456 666.644 153.666 665.673C139.794 658.23 124.616 652.354 109.787 647.108C99.608 649.361 87.3134 655.314 77.1277 655.748C87.6329 651.465 98.7538 648.813 109.185 644.406C127.566 614.124 143.218 589.197 150.322 553.769C163.5 488.04 143.523 432.731 107.345 378.375C101.241 375.333 94.2311 374.068 88.0638 371.122C94.428 372.963 101.713 375.392 108.399 375.107C115.802 374.79 123.192 371.298 129.952 368.499C158.618 356.628 184.94 340.004 206.356 317.375C238.027 283.909 255.763 239.271 259.158 193.617C259.889 183.798 259.655 173.951 259.396 164.119C256.703 161.497 254.303 158.549 251.848 155.706C254.702 157.598 256.772 160.088 258.854 162.752Z"/>
	<path transform="scale(4 4)" d="M895.702 386.459L896.457 386.863C895.946 389.544 885.607 405.326 883.325 409.998C873.344 430.435 865.311 452.052 861.069 474.441C850.429 530.604 866.8 591.607 898.693 638.456C881.963 633.968 865.46 628.696 848.928 623.537Q839.094 620.548 829.221 617.69C825.988 612.362 821.8 607.615 818.359 602.406C814.276 596.226 811.058 589.019 808.087 582.235C790.101 541.158 787.733 493.676 804.359 451.699C808.869 440.312 820.742 413.729 830.58 407.22C839.099 401.585 861.629 396.832 872.514 393.885C880.405 391.749 888.188 389.737 895.702 386.459Z"/>
	<path transform="scale(4 4)" d="M125.309 385.435C136.144 388.769 146.845 392.442 157.744 395.593C166.69 398.179 175.974 400.201 184.707 403.422C187.174 404.332 189.639 405.376 191.705 407.032C204.647 417.405 222.756 453.909 228.221 469.904C231.192 478.603 233.097 487.87 234.115 496.999C239.131 541.935 221.118 584.108 193.464 618.529C189.531 620.123 185.244 621.099 181.159 622.257C162.876 628.112 144.14 633.053 125.719 638.508C140.451 614.285 152.474 589.216 159.579 561.666C171.865 514.027 164.042 464.193 143.845 419.868C138.417 407.957 131.969 396.688 125.309 385.435Z"/>
</svg>
